<?xml version="1.0" encoding="UTF-8" standalone="no"?>
<svg
   width="1560"
   height="1170"
   viewBox="0 0 1200.0001 900"
   version="1.1"
   id="svg276"
   sodipodi:docname="sin4VSbutter-full-bromo.svg"
   inkscape:version="1.2.1 (9c6d41e, 2022-07-14)"
   inkscape:export-filename="sin4VSbutter-full-bromo.png"
   inkscape:export-xdpi="96"
   inkscape:export-ydpi="96"
   xmlns:inkscape="http://www.inkscape.org/namespaces/inkscape"
   xmlns:sodipodi="http://sodipodi.sourceforge.net/DTD/sodipodi-0.dtd"
   xmlns:xlink="http://www.w3.org/1999/xlink"
   xmlns="http://www.w3.org/2000/svg"
   xmlns:svg="http://www.w3.org/2000/svg"
   xmlns:rdf="http://www.w3.org/1999/02/22-rdf-syntax-ns#"
   xmlns:cc="http://creativecommons.org/ns#"
   xmlns:dc="http://purl.org/dc/elements/1.1/">
  <defs
     id="defs280" />
  <sodipodi:namedview
     id="namedview278"
     pagecolor="#ffffff"
     bordercolor="#000000"
     borderopacity="0.25"
     inkscape:showpageshadow="2"
     inkscape:pageopacity="0.0"
     inkscape:pagecheckerboard="true"
     inkscape:deskcolor="#d1d1d1"
     showgrid="false"
     inkscape:zoom="0.26222222"
     inkscape:cx="797.0339"
     inkscape:cy="409.95763"
     inkscape:window-width="1147"
     inkscape:window-height="687"
     inkscape:window-x="0"
     inkscape:window-y="30"
     inkscape:window-maximized="0"
     inkscape:current-layer="svg276"
     showborder="true"
     borderlayer="true" />
  <title
     id="title2">Gnuplot</title>
  <desc
     id="desc4">Produced by GNUPLOT 5.4 patchlevel 4 </desc>
  <g
     id="gnuplot_canvas">
    <rect
       x="0"
       y="0"
       width="1200"
       height="900"
       fill="none"
       id="rect6" />
    <defs
       id="defs34">
      <circle
         id="gpDot"
         r="0.5"
         stroke-width="0.5"
         stroke="currentColor"
         cx="0"
         cy="0" />
      <path
         id="gpPt0"
         stroke-width="0.222"
         stroke="currentColor"
         d="M -1,0 H 1 M 0,-1 v 2" />
      <path
         id="gpPt1"
         stroke-width="0.222"
         stroke="currentColor"
         d="M -1,-1 1,1 M 1,-1 -1,1" />
      <path
         id="gpPt2"
         stroke-width="0.222"
         stroke="currentColor"
         d="M -1,0 H 1 M 0,-1 v 2 m -1,-2 2,2 m -2,0 2,-2" />
      <rect
         id="gpPt3"
         stroke-width="0.222"
         stroke="currentColor"
         x="-1"
         y="-1"
         width="2"
         height="2" />
      <rect
         id="gpPt4"
         stroke-width="0.222"
         stroke="currentColor"
         fill="currentColor"
         x="-1"
         y="-1"
         width="2"
         height="2" />
      <circle
         id="gpPt5"
         stroke-width="0.222"
         stroke="currentColor"
         cx="0"
         cy="0"
         r="1" />
      <use
         xlink:href="#gpPt5"
         id="gpPt6"
         fill="currentColor"
         stroke="none" />
      <path
         id="gpPt7"
         stroke-width="0.222"
         stroke="currentColor"
         d="m 0,-1.33 -1.33,2 h 2.66 z" />
      <use
         xlink:href="#gpPt7"
         id="gpPt8"
         fill="currentColor"
         stroke="none" />
      <use
         xlink:href="#gpPt7"
         id="gpPt9"
         stroke="currentColor"
         transform="scale(-1)" />
      <use
         xlink:href="#gpPt9"
         id="gpPt10"
         fill="currentColor"
         stroke="none" />
      <use
         xlink:href="#gpPt3"
         id="gpPt11"
         stroke="currentColor"
         transform="rotate(45)" />
      <use
         xlink:href="#gpPt11"
         id="gpPt12"
         fill="currentColor"
         stroke="none" />
      <path
         id="gpPt13"
         stroke-width="0.222"
         stroke="currentColor"
         d="M 0,1.33 1.265,0.411 0.782,-1.067 -0.782,-1.076 -1.265,0.411 Z" />
      <use
         xlink:href="#gpPt13"
         id="gpPt14"
         fill="currentColor"
         stroke="none" />
      <filter
         id="textbox"
         filterUnits="objectBoundingBox"
         x="0"
         y="0"
         height="1"
         width="1">
        <feFlood
           flood-color="white"
           flood-opacity="1"
           result="bgnd"
           id="feFlood24" />
        <feComposite
           in="SourceGraphic"
           in2="bgnd"
           operator="atop"
           id="feComposite26" />
      </filter>
      <filter
         id="greybox"
         filterUnits="objectBoundingBox"
         x="0"
         y="0"
         height="1"
         width="1">
        <feFlood
           flood-color="lightgrey"
           flood-opacity="1"
           result="grey"
           id="feFlood29" />
        <feComposite
           in="SourceGraphic"
           in2="grey"
           operator="atop"
           id="feComposite31" />
      </filter>
    </defs>
    <g
       fill="none"
       color="#ffffff"
       stroke="currentColor"
       stroke-width="1"
       stroke-linecap="butt"
       stroke-linejoin="miter"
       id="g36" />
    <g
       fill="none"
       color="#ffffff"
       stroke="currentColor"
       stroke-width="3"
       stroke-linecap="butt"
       stroke-linejoin="miter"
       id="g38" />
    <g
       fill="none"
       color="#000000"
       stroke="currentColor"
       stroke-width="3"
       stroke-linecap="butt"
       stroke-linejoin="miter"
       id="g48">
      <path
         stroke="#000000"
         d="m 120,810 h 18 m 916.82,0 h -18"
         id="path40" />
      <g
         transform="translate(111.61,818.13)"
         stroke="none"
         fill="#000000"
         font-family="Arial"
         font-size="25px"
         text-anchor="end"
         id="g46">
        <text
           id="text44"><tspan
             font-family="Arial"
             id="tspan42">-1</tspan></text>
      </g>
    </g>
    <g
       fill="none"
       color="#000000"
       stroke="currentColor"
       stroke-width="3"
       stroke-linecap="butt"
       stroke-linejoin="miter"
       id="g58">
      <path
         stroke="#000000"
         d="m 120,688.5 h 18 m 916.82,0 h -18"
         id="path50" />
      <g
         transform="translate(111.61,696.63)"
         stroke="none"
         fill="#000000"
         font-family="Arial"
         font-size="25px"
         text-anchor="end"
         id="g56">
        <text
           id="text54"><tspan
             font-family="Arial"
             id="tspan52">0</tspan></text>
      </g>
    </g>
    <g
       fill="none"
       color="#000000"
       stroke="currentColor"
       stroke-width="3"
       stroke-linecap="butt"
       stroke-linejoin="miter"
       id="g68">
      <path
         stroke="#000000"
         d="m 120,567 h 18 m 916.82,0 h -18"
         id="path60" />
      <g
         transform="translate(111.61,575.13)"
         stroke="none"
         fill="#000000"
         font-family="Arial"
         font-size="25px"
         text-anchor="end"
         id="g66">
        <text
           id="text64"><tspan
             font-family="Arial"
             id="tspan62">1</tspan></text>
      </g>
    </g>
    <g
       fill="none"
       color="#000000"
       stroke="currentColor"
       stroke-width="3"
       stroke-linecap="butt"
       stroke-linejoin="miter"
       id="g78">
      <path
         stroke="#000000"
         d="m 120,445.5 h 18 m 916.82,0 h -18"
         id="path70" />
      <g
         transform="translate(111.61,453.63)"
         stroke="none"
         fill="#000000"
         font-family="Arial"
         font-size="25px"
         text-anchor="end"
         id="g76">
        <text
           id="text74"><tspan
             font-family="Arial"
             id="tspan72">2</tspan></text>
      </g>
    </g>
    <g
       fill="none"
       color="#000000"
       stroke="currentColor"
       stroke-width="3"
       stroke-linecap="butt"
       stroke-linejoin="miter"
       id="g88">
      <path
         stroke="#000000"
         d="m 120,324.01 h 18 m 916.82,0 h -18"
         id="path80" />
      <g
         transform="translate(111.61,332.14)"
         stroke="none"
         fill="#000000"
         font-family="Arial"
         font-size="25px"
         text-anchor="end"
         id="g86">
        <text
           id="text84"><tspan
             font-family="Arial"
             id="tspan82">3</tspan></text>
      </g>
    </g>
    <g
       fill="none"
       color="#000000"
       stroke="currentColor"
       stroke-width="3"
       stroke-linecap="butt"
       stroke-linejoin="miter"
       id="g98">
      <path
         stroke="#000000"
         d="m 120,202.51 h 18 m 916.82,0 h -18"
         id="path90" />
      <g
         transform="translate(111.61,210.64)"
         stroke="none"
         fill="#000000"
         font-family="Arial"
         font-size="25px"
         text-anchor="end"
         id="g96">
        <text
           id="text94"><tspan
             font-family="Arial"
             id="tspan92">4</tspan></text>
      </g>
    </g>
    <g
       fill="none"
       color="#000000"
       stroke="currentColor"
       stroke-width="3"
       stroke-linecap="butt"
       stroke-linejoin="miter"
       id="g108">
      <path
         stroke="#000000"
         d="m 120,81.01 h 18 m 916.82,0 h -18"
         id="path100" />
      <g
         transform="translate(111.61,89.14)"
         stroke="none"
         fill="#000000"
         font-family="Arial"
         font-size="25px"
         text-anchor="end"
         id="g106">
        <text
           id="text104"><tspan
             font-family="Arial"
             id="tspan102">5</tspan></text>
      </g>
    </g>
    <g
       fill="none"
       color="#000000"
       stroke="currentColor"
       stroke-width="3"
       stroke-linecap="butt"
       stroke-linejoin="miter"
       id="g118">
      <path
         stroke="#000000"
         d="m 120,810 v -18 m 0,-710.99 v 18"
         id="path110" />
      <g
         transform="translate(120,836.13)"
         stroke="none"
         fill="#000000"
         font-family="Arial"
         font-size="25px"
         text-anchor="middle"
         id="g116">
        <text
           id="text114"><tspan
             font-family="Arial"
             id="tspan112">0</tspan></text>
      </g>
    </g>
    <g
       fill="none"
       color="#000000"
       stroke="currentColor"
       stroke-width="3"
       stroke-linecap="butt"
       stroke-linejoin="miter"
       id="g128">
      <path
         stroke="#000000"
         d="m 275.8,810 v -18 m 0,-710.99 v 18"
         id="path120" />
      <g
         transform="translate(275.8,836.13)"
         stroke="none"
         fill="#000000"
         font-family="Arial"
         font-size="25px"
         text-anchor="middle"
         id="g126">
        <text
           id="text124"><tspan
             font-family="Arial"
             id="tspan122">2</tspan></text>
      </g>
    </g>
    <g
       fill="none"
       color="#000000"
       stroke="currentColor"
       stroke-width="3"
       stroke-linecap="butt"
       stroke-linejoin="miter"
       id="g138">
      <path
         stroke="#000000"
         d="m 431.61,810 v -18 m 0,-710.99 v 18"
         id="path130" />
      <g
         transform="translate(431.61,836.13)"
         stroke="none"
         fill="#000000"
         font-family="Arial"
         font-size="25px"
         text-anchor="middle"
         id="g136">
        <text
           id="text134"><tspan
             font-family="Arial"
             id="tspan132">4</tspan></text>
      </g>
    </g>
    <g
       fill="none"
       color="#000000"
       stroke="currentColor"
       stroke-width="3"
       stroke-linecap="butt"
       stroke-linejoin="miter"
       id="g148">
      <path
         stroke="#000000"
         d="m 587.41,810 v -18 m 0,-710.99 v 18"
         id="path140" />
      <g
         transform="translate(587.41,836.13)"
         stroke="none"
         fill="#000000"
         font-family="Arial"
         font-size="25px"
         text-anchor="middle"
         id="g146">
        <text
           id="text144"><tspan
             font-family="Arial"
             id="tspan142">6</tspan></text>
      </g>
    </g>
    <g
       fill="none"
       color="#000000"
       stroke="currentColor"
       stroke-width="3"
       stroke-linecap="butt"
       stroke-linejoin="miter"
       id="g158">
      <path
         stroke="#000000"
         d="m 743.21,810 v -18 m 0,-710.99 v 18"
         id="path150" />
      <g
         transform="translate(743.21,836.13)"
         stroke="none"
         fill="#000000"
         font-family="Arial"
         font-size="25px"
         text-anchor="middle"
         id="g156">
        <text
           id="text154"><tspan
             font-family="Arial"
             id="tspan152">8</tspan></text>
      </g>
    </g>
    <g
       fill="none"
       color="#000000"
       stroke="currentColor"
       stroke-width="3"
       stroke-linecap="butt"
       stroke-linejoin="miter"
       id="g168">
      <path
         stroke="#000000"
         d="m 899.02,810 v -18 m 0,-710.99 v 18"
         id="path160" />
      <g
         transform="translate(899.02,836.13)"
         stroke="none"
         fill="#000000"
         font-family="Arial"
         font-size="25px"
         text-anchor="middle"
         id="g166">
        <text
           id="text164"><tspan
             font-family="Arial"
             id="tspan162">10</tspan></text>
      </g>
    </g>
    <g
       fill="none"
       color="#000000"
       stroke="currentColor"
       stroke-width="3"
       stroke-linecap="butt"
       stroke-linejoin="miter"
       id="g178">
      <path
         stroke="#000000"
         d="m 1054.82,810 v -18 m 0,-710.99 v 18"
         id="path170" />
      <g
         transform="translate(1054.82,836.13)"
         stroke="none"
         fill="#000000"
         font-family="Arial"
         font-size="25px"
         text-anchor="middle"
         id="g176">
        <text
           id="text174"><tspan
             font-family="Arial"
             id="tspan172">12</tspan></text>
      </g>
    </g>
    <g
       fill="none"
       color="#000000"
       stroke="currentColor"
       stroke-width="3"
       stroke-linecap="butt"
       stroke-linejoin="miter"
       id="g180" />
    <g
       fill="none"
       color="#000000"
       stroke="currentColor"
       stroke-width="3"
       stroke-linecap="butt"
       stroke-linejoin="miter"
       id="g184">
      <path
         stroke="#000000"
         d="M 120,81.01 V 810 h 934.82 V 81.01 Z"
         id="path182" />
    </g>
    <g
       fill="none"
       color="#000000"
       stroke="currentColor"
       stroke-width="3"
       stroke-linecap="butt"
       stroke-linejoin="miter"
       id="g192">
      <g
         transform="rotate(-90,258.19,187.32)"
         stroke="none"
         fill="#000000"
         font-family="Arial"
         font-size="25px"
         text-anchor="middle"
         id="g190">
        <text
           id="text188"><tspan
             font-family="Arial"
             id="tspan186">Dipole [au]</tspan></text>
      </g>
    </g>
    <g
       fill="none"
       color="#000000"
       stroke="currentColor"
       stroke-width="3"
       stroke-linecap="butt"
       stroke-linejoin="miter"
       id="g200">
      <g
         transform="translate(587.41,881.13)"
         stroke="none"
         fill="#000000"
         font-family="Arial"
         font-size="25px"
         text-anchor="middle"
         id="g198">
        <text
           id="text196"><tspan
             font-family="Arial"
             id="tspan194">Time [fs]</tspan></text>
      </g>
    </g>
    <g
       fill="none"
       color="#000000"
       stroke="currentColor"
       stroke-width="3"
       stroke-linecap="butt"
       stroke-linejoin="miter"
       id="g202" />
    <g
       id="gnuplot_plot_1">
      <title
         id="title204">orignal</title>
      <g
         fill="none"
         color="#ffffff"
         stroke="currentColor"
         stroke-width="5"
         stroke-linecap="butt"
         stroke-linejoin="miter"
         id="g206" />
      <g
         fill="none"
         color="#000000"
         stroke="currentColor"
         stroke-width="5"
         stroke-linecap="butt"
         stroke-linejoin="miter"
         id="g214">
        <g
           transform="translate(953.43,111.51)"
           stroke="none"
           fill="#000000"
           font-family="Arial"
           font-size="20px"
           text-anchor="end"
           id="g212">
          <text
             id="text210"><tspan
               font-family="Arial"
               id="tspan208">orignal</tspan></text>
        </g>
      </g>
      <g
         fill="none"
         color="#000000"
         stroke="currentColor"
         stroke-width="5"
         stroke-linecap="butt"
         stroke-linejoin="miter"
         id="g218">
        <path
           stroke="#bebebe"
           d="m 967.43,105.01 h 65 M 120,787.15 l 0.38,-1.39 0.37,-4.15 0.38,-6.88 0.38,-9.58 0.37,-12.17 0.38,-14.58 0.38,-16.81 0.37,-18.76 0.38,-20.43 0.38,-21.87 0.38,-23.05 0.37,-24.05 0.38,-24.9 0.38,-25.6 0.37,-26.16 0.38,-26.53 0.38,-26.68 0.37,-26.56 0.38,-26.14 0.38,-25.43 0.37,-24.45 0.38,-23.19 0.38,-21.74 0.37,-20.14 0.38,-18.45 0.38,-16.68 0.38,-14.88 0.37,-13.02 0.38,-11.11 0.38,-9.15 0.37,-7.11 0.38,-5.03 0.38,-2.87 0.37,-0.73 0.38,1.36 0.38,3.34 0.37,5.19 0.38,6.83 0.38,8.28 0.37,9.57 0.38,10.68 0.38,11.71 0.38,12.68 0.37,13.59 0.38,14.46 0.38,15.29 0.37,16 0.38,16.59 0.38,16.98 0.37,17.14 0.38,17.08 0.38,16.87 0.37,16.52 0.38,16.1 0.38,15.68 0.37,15.26 0.38,14.84 0.38,14.41 0.38,13.86 0.37,13.17 0.38,12.29 0.38,11.2 0.37,9.9 0.38,8.45 0.38,6.85 0.37,5.17 0.38,3.43 0.38,1.62 0.37,-0.26 0.38,-2.18 0.38,-4.14 0.37,-6.13 0.38,-8.12 0.38,-10.06 0.38,-11.9 0.37,-13.58 0.38,-15.05 0.38,-16.26 0.37,-17.23 0.38,-17.92 0.38,-18.41 0.37,-18.69 0.38,-18.83 0.38,-18.82 0.37,-18.73 0.38,-18.51 0.38,-18.22 0.37,-17.86 0.38,-17.39 0.38,-16.86 0.38,-16.19 0.37,-15.4 0.38,-14.49 0.38,-13.48 0.37,-12.36 0.38,-11.2 0.38,-9.98 0.37,-8.74 0.38,-7.49 0.38,-6.24 0.37,-4.98 0.38,-3.73 0.38,-2.53 0.37,-1.4 0.38,-0.36 0.38,0.56 0.38,1.35 0.37,2.01 0.38,2.54 0.38,2.96 0.37,3.32 0.38,3.64 0.38,3.94 0.37,4.2 0.38,4.43 0.38,4.6 0.37,4.69 0.38,4.69 0.38,4.63 0.37,4.51 0.38,4.39 0.38,4.28 0.38,4.21 0.37,4.19 0.38,4.22 0.38,4.28 0.37,4.32 0.38,4.29 0.38,4.17 0.37,3.98 0.38,3.77 0.38,3.58 0.37,3.45 0.38,3.42 0.38,3.47 0.37,3.59 0.38,3.7 0.38,3.8 0.37,3.79 0.38,3.65 0.38,3.36 0.38,2.89 0.37,2.23 0.38,1.49 0.38,0.69 0.37,-0.13 0.38,-0.88 0.38,-1.64 0.37,-2.33 0.38,-2.97 0.38,-3.57 0.37,-4.09 0.38,-4.54 0.38,-4.92 0.37,-5.22 0.38,-5.4 0.38,-5.51 0.38,-5.53 0.37,-5.48 0.38,-5.41 0.38,-5.28 0.37,-5.14 0.38,-5.02 0.38,-4.88 0.37,-4.73 0.38,-4.6 0.38,-4.47 0.37,-4.37 0.38,-4.3 0.38,-4.21 0.37,-4.11 0.38,-3.94 0.38,-3.71 0.38,-3.39 0.37,-3 0.38,-2.54 0.38,-2.06 0.37,-1.62 0.38,-1.25 0.38,-0.96 0.37,-0.78 0.38,-0.72 0.38,-0.74 0.37,-0.83 0.38,-0.95 0.38,-1.06 0.37,-1.12 0.38,-1.12 0.38,-1.04 0.38,-0.88 0.37,-0.66 0.38,-0.38 0.38,-0.04 0.37,0.34 0.38,0.79 0.38,1.27 0.37,1.76 0.38,2.26 0.38,2.75 0.37,3.23 0.38,3.73 0.38,4.21 0.37,4.66 0.38,5.08 0.38,5.42 0.38,5.69 0.37,5.89 0.38,6.02 0.38,6.07 0.37,6.04 0.38,5.88 0.38,5.59 0.37,5.16 0.38,4.64 0.38,3.99 0.37,3.29 0.38,2.49 0.38,1.64 0.37,0.78 0.38,-0.09 0.38,-0.92 0.38,-1.69 0.37,-2.36 0.38,-2.93 0.38,-3.37 0.37,-3.66 0.38,-3.77 0.38,-3.68 0.37,-3.41 0.38,-3.02 0.38,-2.57 0.37,-2.15 0.38,-1.76 0.38,-1.49 0.37,-1.32 0.38,-1.26 0.38,-1.31 0.38,-1.45 0.37,-1.63 0.38,-1.84 0.38,-2.04 0.37,-2.21 0.38,-2.39 0.38,-2.54 0.37,-2.68 0.38,-2.8 0.38,-2.85 0.37,-2.79 0.38,-2.67 0.38,-2.45 0.37,-2.23 0.38,-2.03 0.38,-1.85 0.38,-1.71 0.37,-1.61 0.38,-1.5 0.38,-1.35 0.37,-1.16 0.38,-0.83 0.38,-0.42 0.37,0.09 0.38,0.72 0.38,1.41 0.37,2.16 0.38,2.92 0.38,3.72 0.37,4.54 0.38,5.41 0.38,6.35 0.37,7.33 0.38,8.31 0.38,9.25 0.38,10.08 0.37,10.75 0.38,11.22 0.38,11.5 0.37,11.61 0.38,11.62 0.38,11.55 0.37,11.43 0.38,11.27 0.38,11.05 0.37,10.73 0.38,10.29 0.38,9.68 0.37,8.88 0.38,7.9 0.38,6.81 0.38,5.64 0.37,4.5 0.38,3.44 0.38,2.51 0.37,1.74 0.38,1.09 0.38,0.54 0.37,0.04 0.38,-0.4 0.38,-0.85 0.37,-1.26 0.38,-1.67 0.38,-2.11 0.37,-2.5 0.38,-2.86 0.38,-3.18 0.38,-3.46 0.37,-3.73 0.38,-4.01 0.38,-4.32 0.37,-4.62 0.38,-4.93 0.38,-5.17 0.37,-5.34 0.38,-5.41 0.38,-5.37 0.37,-5.2 0.38,-4.89 0.38,-4.43 0.37,-3.83 0.38,-3.15 0.38,-2.4 0.38,-1.66 0.37,-0.92 0.38,-0.22 0.38,0.46 0.37,1.07 0.38,1.6 0.38,2 0.37,2.3 0.38,2.48 0.38,2.59 0.37,2.64 0.38,2.68 0.38,2.71 0.37,2.76 0.38,2.81 0.38,2.89 0.38,3.02 0.37,3.21 0.38,3.43 0.38,3.64 0.37,3.84 0.38,4.01 0.38,4.18 0.37,4.37 0.38,4.57 0.38,4.79 0.37,4.99 0.38,5.18 0.38,5.33 0.37,5.41 0.38,5.43 0.38,5.41 0.38,5.31 0.37,5.17 0.38,4.98 0.38,4.72 0.37,4.46 0.38,4.18 0.38,3.86 0.37,3.54 0.38,3.24 0.38,2.96 0.37,2.75 0.38,2.6 0.38,2.51 0.37,2.46 0.38,2.44 0.38,2.4 0.38,2.34 0.37,2.25 0.38,2.11 0.38,1.99 0.37,1.85 0.38,1.73 0.38,1.65 0.37,1.58 0.38,1.54 0.38,1.5 0.37,1.43 0.38,1.34 0.38,1.22 0.37,1.09 0.38,0.98 0.38,0.88 0.38,0.8 0.37,0.76 0.38,0.75 0.38,0.71 0.37,0.65 0.38,0.5 0.38,0.24 0.37,-0.11 0.38,-0.58 0.38,-1.16 0.37,-1.81 0.38,-2.52 0.38,-3.28 0.37,-4.06 0.38,-4.83 0.38,-5.58 0.37,-6.26 0.38,-6.85 0.38,-7.36 0.38,-7.73 0.37,-7.96 0.38,-8.02 0.38,-7.93 0.37,-7.72 0.38,-7.46 0.38,-7.18 0.37,-6.93 0.38,-6.71 0.38,-6.51 0.37,-6.33 0.38,-6.13 0.38,-5.91 0.37,-5.65 0.38,-5.31 0.38,-4.9 0.38,-4.37 0.37,-3.76 0.38,-3.05 0.38,-2.31 0.37,-1.53 0.38,-0.72 0.38,0.16 0.37,1.09 0.38,2.09 0.38,3.13 0.37,4.17 0.38,5.18 0.38,6.11 0.37,6.92 0.38,7.56 0.38,8 0.38,8.25 0.37,8.32 0.38,8.25 0.38,8.1 0.37,7.89 0.38,7.68 0.38,7.47 0.37,7.19 0.38,6.89 0.38,6.48 0.37,5.99 0.38,5.43 0.38,4.81 0.37,4.1 0.38,3.35 0.38,2.56 0.38,1.76 0.37,1.01 0.38,0.24 0.38,-0.49 0.37,-1.22 0.38,-1.94 0.38,-2.66 0.37,-3.33 0.38,-3.97 0.38,-4.55 0.37,-5.04 0.38,-5.47 0.38,-5.82 0.37,-6.1 0.38,-6.35 0.38,-6.54 0.38,-6.73 0.37,-6.93 0.38,-7.17 0.38,-7.46 0.37,-7.8 0.38,-8.2 0.38,-8.63 0.37,-9.11 0.38,-9.62 0.38,-10.14 0.37,-10.68 0.38,-11.18 0.38,-11.64 0.37,-12.01 0.38,-12.27 0.38,-12.41 0.38,-12.41 0.37,-12.29 0.38,-12.03 0.38,-11.63 0.37,-11.08 0.38,-10.38 0.38,-9.5 0.37,-8.48 0.38,-7.35 0.38,-6.12 0.37,-4.82 0.38,-3.47 0.38,-2.08 0.37,-0.68 0.38,0.66 0.38,1.97 0.38,3.21 0.37,4.35 0.38,5.4 0.38,6.34 0.37,7.15 0.38,7.83 0.38,8.32 0.37,8.62 0.38,8.77 0.38,8.73 0.37,8.55 0.38,8.26 0.38,7.84 0.37,7.34 0.38,6.77 0.38,6.2 0.38,5.64 0.37,5.12 0.38,4.64 0.38,4.18 0.37,3.75 0.38,3.33 0.38,2.92 0.37,2.55 0.38,2.18 0.38,1.83 0.37,1.47 0.38,1.1 0.38,0.72 0.37,0.34 0.38,-0.02 0.38,-0.38 0.37,-0.75 0.38,-1.12 0.38,-1.53 0.38,-1.94 0.37,-2.32 0.38,-2.71 0.38,-3.11 0.37,-3.52 0.38,-3.95 0.38,-4.42 0.37,-4.87 0.38,-5.28 0.38,-5.66 0.37,-5.96 0.38,-6.21 0.38,-6.45 0.37,-6.64 0.38,-6.8 0.38,-6.92 0.38,-6.99 0.37,-6.98 0.38,-6.94 0.38,-6.77 0.37,-6.52 0.38,-6.15 0.38,-5.66 0.37,-5.08 0.38,-4.45 0.38,-3.79 0.37,-3.16 0.38,-2.52 0.38,-1.89 0.37,-1.26 0.38,-0.64 h 0.38 l 0.38,0.59 0.37,1.14 0.38,1.67 0.38,2.12 0.37,2.52 0.38,2.83 0.38,3.06 0.37,3.21 0.38,3.3 0.38,3.3 0.37,3.28 0.38,3.22 0.38,3.11 0.37,3.01 0.38,2.85 0.38,2.68 0.38,2.52 0.37,2.35 0.38,2.21 0.38,2.07 0.37,1.95 0.38,1.83 0.38,1.71 0.37,1.58 0.38,1.46 0.38,1.31 0.37,1.17 0.38,1.06 0.38,0.94 0.37,0.83 0.38,0.77 0.38,0.74 0.38,0.72 0.37,0.77 0.38,0.78 0.38,0.76 0.37,0.72 0.38,0.6 0.38,0.43 0.37,0.21 0.38,-0.07 0.38,-0.39 0.37,-0.75 0.38,-1.15 0.38,-1.56 0.37,-1.97 0.38,-2.4 0.38,-2.81 0.38,-3.25 0.37,-3.72 0.38,-4.17 0.38,-4.61 0.37,-4.95 0.38,-5.19 0.38,-5.33 0.37,-5.34 0.38,-5.28 0.38,-5.12 0.37,-4.91 0.38,-4.63 0.38,-4.31 0.37,-3.98 0.38,-3.64 0.38,-3.3 0.38,-2.93 0.37,-2.51 0.38,-1.99 0.38,-1.37 0.37,-0.64 0.38,0.14 0.38,0.99 0.37,1.88 0.38,2.77 0.38,3.68 0.37,4.56 0.38,5.42 0.38,6.23 0.37,7 0.38,7.7 0.38,8.35 0.38,8.92 0.37,9.38 0.38,9.73 0.38,9.91 0.37,9.96 0.38,9.91 0.38,9.75 0.37,9.51 0.38,9.2 0.38,8.83 0.37,8.4 0.38,7.96 0.38,7.5 0.37,7.07 0.38,6.67 0.38,6.32 0.37,6.01 0.38,5.77 0.38,5.59 0.38,5.45 0.37,5.39 0.38,5.35 0.38,5.35 0.37,5.35 0.38,5.33 0.38,5.31 0.37,5.26 0.38,5.16 0.38,5 0.37,4.76 0.38,4.43 0.38,4.01 0.37,3.5 0.38,2.93 0.38,2.3 0.38,1.58 0.37,0.82 h 0.38 l 0.38,-0.87 0.37,-1.75 0.38,-2.6 0.38,-3.45 0.37,-4.24 0.38,-4.99 0.38,-5.72 0.37,-6.42 0.38,-7.13 0.38,-7.85 0.37,-8.56 0.38,-9.25 0.38,-9.89 0.38,-10.44 0.37,-10.87 0.38,-11.13 0.38,-11.18 0.37,-11.02 0.38,-10.67 0.38,-10.11 0.37,-9.42 0.38,-8.65 0.38,-7.79 0.37,-6.88 0.38,-5.93 0.38,-4.88 0.37,-3.76 0.38,-2.56 0.38,-1.23 0.38,0.15 0.37,1.62 0.38,3.11 0.38,4.61 0.37,6.05 0.38,7.4 0.38,8.62 0.37,9.74 0.38,10.74 0.38,11.69 0.37,12.55 0.38,13.36 0.38,14.1 0.37,14.78 0.38,15.36 0.38,15.85 0.38,16.22 0.37,16.47 0.38,16.56 0.38,16.54 0.37,16.38 0.38,16.13 0.38,15.8 0.37,15.42 0.38,14.95 0.38,14.4 0.37,13.73 0.38,12.96 0.38,12.05 0.37,11 0.38,9.83 0.38,8.52 0.38,7.07 0.37,5.55 0.38,3.95 0.38,2.33 0.37,0.73 0.38,-0.8 0.38,-2.28 0.37,-3.63 0.38,-4.85 0.38,-5.92 0.37,-6.84 0.38,-7.63 0.38,-8.35 0.37,-9 0.38,-9.65 0.38,-10.3 0.38,-10.95 0.37,-11.63 0.38,-12.31 0.38,-12.94 0.37,-13.57 0.38,-14.11 0.38,-14.59 0.37,-14.95 0.38,-15.2 0.38,-15.33 0.37,-15.31 0.38,-15.16 0.38,-14.86 0.37,-14.39 0.38,-13.74 0.38,-12.9 0.38,-11.85 0.37,-10.61 0.38,-9.18 0.38,-7.59 0.37,-5.87 0.38,-4.08 0.38,-2.26 0.37,-0.44 0.38,1.31 0.38,2.98 0.37,4.55 0.38,6.01 0.38,7.39 0.37,8.7 0.38,9.95 0.38,11.15 0.37,12.27 0.38,13.27 0.38,14.13 0.38,14.82 0.37,15.24 0.38,15.43 0.38,15.39 0.37,15.1 0.38,14.63 0.38,13.97 0.37,13.19 0.38,12.31 0.38,11.38 0.37,10.36 0.38,9.28 0.38,8.15 0.37,6.94 0.38,5.7 0.38,4.46 0.38,3.22 0.37,2.01 0.38,0.84 0.38,-0.3 0.37,-1.38 0.38,-2.43 0.38,-3.42 0.37,-4.39 0.38,-5.31 0.38,-6.21 0.37,-7.07 0.38,-7.87 0.38,-8.58 0.37,-9.18 0.38,-9.7 0.38,-10.09 0.38,-10.4 0.37,-10.6 0.38,-10.69 0.38,-10.69 0.37,-10.6 0.38,-10.45 0.38,-10.26 0.37,-10.08 0.38,-9.9 0.38,-9.74 0.37,-9.61 0.38,-9.49 0.38,-9.43 0.37,-9.42 0.38,-9.46 0.38,-9.53 0.38,-9.55 0.37,-9.52 0.38,-9.42 0.38,-9.2 0.37,-8.89 0.38,-8.47 0.38,-7.94 0.37,-7.33 0.38,-6.67 0.38,-6.01 0.37,-5.36 0.38,-4.74 0.38,-4.12 0.37,-3.5 0.38,-2.81 0.38,-2.07 0.38,-1.26 0.37,-0.43 0.38,0.39 0.38,1.19 0.37,1.93 0.38,2.61 0.38,3.2 0.37,3.71 0.38,4.19 0.38,4.65 0.37,5.14 0.38,5.65 0.38,6.18 0.37,6.68 0.38,7.11 0.38,7.43 0.38,7.64 0.37,7.71 0.38,7.66 0.38,7.51 0.37,7.25 0.38,6.87 0.38,6.42 0.37,5.89 0.38,5.29 0.38,4.59 0.37,3.81 0.38,2.91 0.38,1.92 0.37,0.85 0.38,-0.3 0.38,-1.44 0.38,-2.56 0.37,-3.61 0.38,-4.52 0.38,-5.32 0.37,-5.93 0.38,-6.34 0.38,-6.59 0.37,-6.69 0.38,-6.64 0.38,-6.5 0.37,-6.25 0.38,-5.91 0.38,-5.54 0.37,-5.13 0.38,-4.72 0.38,-4.33 0.38,-3.99 0.37,-3.67 0.38,-3.45 0.38,-3.29 0.37,-3.17 0.38,-3.11 0.38,-3.04 0.37,-2.97 0.38,-2.89 0.38,-2.78 0.37,-2.66 0.38,-2.55 0.38,-2.43 0.37,-2.31 0.38,-2.22 0.38,-2.14 0.37,-2.1 0.38,-2.1 0.38,-2.12 0.38,-2.17 0.37,-2.23 0.38,-2.3 0.38,-2.41 0.37,-2.52 0.38,-2.63 0.38,-2.71 0.37,-2.77 0.38,-2.8 0.38,-2.79 0.37,-2.77 0.38,-2.74 0.38,-2.7 0.37,-2.64 0.38,-2.6 0.38,-2.54 0.38,-2.46 0.37,-2.4 0.38,-2.31 0.38,-2.14 0.37,-1.92 0.38,-1.62 0.38,-1.26 0.37,-0.86 0.38,-0.43 0.38,0.03 0.37,0.5 0.38,0.98 0.38,1.44 0.37,1.85 0.38,2.18 0.38,2.42 0.38,2.55 0.37,2.59 0.38,2.53 0.38,2.41 0.37,2.24 0.38,2.03 0.38,1.82 0.37,1.64 0.38,1.48 0.38,1.33 0.37,1.19 0.38,1.01 0.38,0.81 0.37,0.62 0.38,0.45 0.38,0.32 0.38,0.26 0.37,0.24 0.38,0.28 0.38,0.3 0.37,0.3 0.38,0.23 0.38,0.11 0.37,-0.07 0.38,-0.25 0.38,-0.41 0.37,-0.46 0.38,-0.38 0.38,-0.14 0.37,0.21 0.38,0.66 0.38,1.13 0.38,1.57 0.37,1.97 0.38,2.28 0.38,2.52 0.37,2.67 0.38,2.73 0.38,2.71 0.37,2.61 0.38,2.42 0.38,2.15 0.37,1.84 0.38,1.45 0.38,1.07 0.37,0.72 0.38,0.41 0.38,0.24 0.38,0.15 0.37,0.17 0.38,0.26 0.38,0.41 0.37,0.59 0.38,0.82 0.38,1.04 0.37,1.3 0.38,1.56 0.38,1.84 0.37,2.13 0.38,2.4 0.38,2.64 0.37,2.82 0.38,2.91 0.38,2.91 0.38,2.8 0.37,2.62 0.38,2.38 0.38,2.11 0.37,1.84 0.38,1.6 0.38,1.41 0.37,1.27 0.38,1.17 0.38,1.08 0.37,0.96 0.38,0.81 0.38,0.65 0.37,0.48 0.38,0.34 0.38,0.26 0.38,0.22 0.37,0.27 0.38,0.38 0.38,0.52 0.37,0.69 0.38,0.89 0.38,1.05 0.37,1.23 0.38,1.4 0.38,1.55 0.37,1.71 0.38,1.89 0.38,2.02 0.37,2.13 0.38,2.14 0.38,2.03 0.37,1.85 0.38,1.56 0.38,1.23 0.38,0.89 0.37,0.56 0.38,0.28 0.38,0.1 0.37,-0.01 0.38,-0.06 0.38,-0.04 0.37,-0.03 0.38,-0.02 h 0.38 l 0.37,0.01 0.38,0.06 0.38,0.18 0.37,0.34 0.38,0.55 0.38,0.78 0.38,1 0.37,1.24 0.38,1.44 0.38,1.63 0.37,1.82 0.38,2.02 0.38,2.26 0.37,2.58 0.38,2.96 0.38,3.38 0.37,3.82 0.38,4.2 0.38,4.47 0.37,4.61 0.38,4.62 0.38,4.5 0.38,4.31 0.37,4.06 0.38,3.77 0.38,3.47 0.37,3.13 0.38,2.8 0.38,2.46 0.37,2.06 0.38,1.69 0.38,1.33 0.37,1.03 0.38,0.85 0.38,0.81 0.37,0.91 0.38,1.14 0.38,1.49 0.38,1.88 0.37,2.31 0.38,2.76 0.38,3.22 0.37,3.67 0.38,4.11 0.38,4.49 0.37,4.82 0.38,5.09 0.38,5.29 0.37,5.4 0.38,5.43 0.38,5.37 0.37,5.25 0.38,5.07 0.38,4.82 0.38,4.54 0.37,4.18 0.38,3.79 0.38,3.33 0.37,2.81 0.38,2.25 0.38,1.67 0.37,1.11 0.38,0.59 0.38,0.08 0.37,-0.34 0.38,-0.72 0.38,-1.01 0.37,-1.26 0.38,-1.46 0.38,-1.65 0.38,-1.84 0.37,-2 0.38,-2.15 0.38,-2.27 0.37,-2.34 0.38,-2.38 0.38,-2.35 0.37,-2.28 0.38,-2.22 0.38,-2.15 0.37,-2.09 0.38,-2.06 0.38,-2.05 0.37,-2.04 0.38,-2.07 0.38,-2.11 0.38,-2.16 0.37,-2.22 0.38,-2.28 0.38,-2.33 0.37,-2.38 0.38,-2.4 0.38,-2.41 0.37,-2.41 0.38,-2.39 0.38,-2.35 0.37,-2.25 0.38,-2.11 0.38,-1.91 0.37,-1.66 0.38,-1.38 0.38,-1.1 0.38,-0.82 0.37,-0.57 0.38,-0.32 0.38,-0.05 0.37,0.23 0.38,0.57 0.38,0.95 0.37,1.37 0.38,1.82 0.38,2.26 0.37,2.64 0.38,2.93 0.38,3.16 0.37,3.31 0.38,3.46 0.38,3.63 0.37,3.87 0.38,4.15 0.38,4.51 0.38,4.87 0.37,5.18 0.38,5.41 0.38,5.48 0.37,5.4 0.38,5.16 0.38,4.8 0.37,4.33 0.38,3.85 0.38,3.38 0.37,2.93 0.38,2.52 0.38,2.05 0.37,1.52 0.38,0.91 0.38,0.2 0.38,-0.59 0.37,-1.44 0.38,-2.31 0.38,-3.18 0.37,-4 0.38,-4.75 0.38,-5.46 0.37,-6.12 0.38,-6.77 0.38,-7.42 0.37,-8.08 0.38,-8.73 0.38,-9.35 0.37,-9.88 0.38,-10.3 0.38,-10.6 0.38,-10.74 0.37,-10.75 0.38,-10.61 0.38,-10.33 0.37,-9.92 0.38,-9.43 0.38,-8.86 0.37,-8.2 0.38,-7.52 0.38,-6.8 0.37,-6.07 0.38,-5.37 0.38,-4.69 0.37,-4.03 0.38,-3.42 0.38,-2.84 0.38,-2.26 0.37,-1.71 0.38,-1.13 0.38,-0.56 0.37,0.02 0.38,0.55 0.38,1.05 0.37,1.47 0.38,1.75 0.38,1.92 0.37,1.96 0.38,1.92 0.38,1.83 0.37,1.71 0.38,1.58 0.38,1.51 0.38,1.48 0.37,1.5 0.38,1.56 0.38,1.62 0.37,1.7 0.38,1.77 0.38,1.81 0.37,1.86 0.38,1.93 0.38,2.04 0.37,2.22 0.38,2.43 0.38,2.68 0.37,2.93 0.38,3.15 0.38,3.35 0.38,3.49 0.37,3.55 0.38,3.55 0.38,3.47 0.37,3.34 0.38,3.16 0.38,2.93 0.37,2.62 0.38,2.22 0.38,1.73 0.37,1.12 0.38,0.44 0.38,-0.29 0.37,-1.09 0.38,-1.9 0.38,-2.77 0.38,-3.7 0.37,-4.64 0.38,-5.58 0.38,-6.51 0.37,-7.36 0.38,-8.15 0.38,-8.84 0.37,-9.39 0.38,-9.8 0.38,-10.07 0.37,-10.2 0.38,-10.23 0.38,-10.19 0.37,-10.08 0.38,-9.91 0.38,-9.7 0.38,-9.39 0.37,-8.97 0.38,-8.46 0.38,-7.86 0.37,-7.22 0.38,-6.55 0.38,-5.85 0.37,-5.18 0.38,-4.52 0.38,-3.88 0.37,-3.27 0.38,-2.67 0.38,-2.04 0.37,-1.4 0.38,-0.76 0.38,-0.11 0.37,0.48 0.38,0.98 0.38,1.37 0.38,1.62 0.37,1.77 0.38,1.84 0.38,1.85 0.37,1.83 0.38,1.78 0.38,1.71 0.37,1.67 0.38,1.62 0.38,1.6 0.37,1.61 0.38,1.68 0.38,1.84 0.37,2.09 0.38,2.42 0.38,2.87 0.38,3.36 0.37,3.89 0.38,4.41 0.38,4.87 0.37,5.24 0.38,5.53 0.38,5.74 0.37,5.85 0.38,5.93 0.38,5.93 0.37,5.87 0.38,5.77 0.38,5.54 0.37,5.22 0.38,4.76 0.38,4.19 0.38,3.49 0.37,2.7 0.38,1.86 0.38,0.99 0.37,0.21 0.38,-0.51 0.38,-1.12 0.37,-1.66 0.38,-2.18 0.38,-2.66 0.37,-3.16 0.38,-3.65 0.38,-4.11 0.37,-4.51 0.38,-4.86 0.38,-5.09 0.38,-5.22 0.37,-5.22 0.38,-5.1 0.38,-4.85 0.37,-4.55 0.38,-4.23 0.38,-3.92 0.37,-3.64 0.38,-3.37 0.38,-3.08 0.37,-2.74 0.38,-2.34 0.38,-1.91 0.37,-1.44 0.38,-0.96 0.38,-0.54 0.38,-0.15 0.37,0.14 0.38,0.33 0.38,0.4 0.37,0.34 0.38,0.17 0.38,-0.03 0.37,-0.27 0.38,-0.53 0.38,-0.78 0.37,-1.06 0.38,-1.33 0.38,-1.53 0.37,-1.66 0.38,-1.68 0.38,-1.55 0.38,-1.27 0.37,-0.81 0.38,-0.21 0.38,0.54 0.37,1.41 0.38,2.37 0.38,3.39 0.37,4.42 0.38,5.44 0.38,6.43 0.37,7.39 0.38,8.3 0.38,9.12 0.37,9.85 0.38,10.43 0.38,10.88 0.38,11.17 0.37,11.3 0.38,11.3 0.38,11.16 0.37,10.89 0.38,10.5 0.38,9.98 0.37,9.34 0.38,8.6 0.38,7.74 0.37,6.79 0.38,5.76 0.38,4.64 0.37,3.47 0.38,2.29 0.38,1.09 0.38,-0.08 0.37,-1.18 0.38,-2.2 0.38,-3.12 0.37,-3.93 0.38,-4.66 0.38,-5.27 0.37,-5.76 0.38,-6.18 0.38,-6.54 0.37,-6.85 0.38,-7.17 0.38,-7.48 0.37,-7.76 0.38,-7.97 0.38,-8.09 0.37,-8.06 0.38,-7.93 0.38,-7.65 0.38,-7.24 0.37,-6.71 0.38,-6.06 0.38,-5.32 0.37,-4.54 0.38,-3.7 0.38,-2.87 0.37,-2.01 0.38,-1.15 0.38,-0.23 0.37,0.67 0.38,1.56 0.38,2.4 0.37,3.13 0.38,3.79 0.38,4.33 0.38,4.79 0.37,5.17 0.38,5.51 0.38,5.82 0.37,6.15 0.38,6.53 0.38,6.97 0.37,7.51 0.38,8.1 0.38,8.72 0.37,9.32 0.38,9.88 0.38,10.4 0.37,10.88 0.38,11.3 0.38,11.66 0.38,11.97 0.37,12.24 0.38,12.49 0.38,12.68 0.37,12.8 0.38,12.86 0.38,12.8 0.37,12.56 0.38,12.18 0.38,11.59 0.37,10.87 0.38,10.02 0.38,9.07 0.37,7.99 0.38,6.82 0.38,5.54 0.38,4.17 0.37,2.73 0.38,1.22 0.38,-0.34 0.37,-1.88 0.38,-3.36 0.38,-4.75 0.37,-5.96 0.38,-6.99 0.38,-7.82 0.37,-8.47 0.38,-9.02 0.38,-9.46 0.37,-9.86 0.38,-10.19 0.38,-10.45 0.38,-10.63 0.37,-10.72 0.38,-10.7 0.38,-10.59 0.37,-10.39 0.38,-10.11 0.38,-9.78 0.37,-9.39 0.38,-8.94 0.38,-8.44 0.37,-7.89 0.38,-7.26 0.38,-6.55 0.37,-5.75 0.38,-4.88 0.38,-4 0.38,-3.09 0.37,-2.22 0.38,-1.38 0.38,-0.57 0.37,0.21 0.38,1 0.38,1.8 0.37,2.64 0.38,3.52 0.38,4.44 0.37,5.38 0.38,6.31 0.38,7.23 0.37,8.09 0.38,8.87 0.38,9.55 0.38,10.15 0.37,10.64 0.38,11.1 0.38,11.49 0.37,11.81 0.38,12.05 0.38,12.2 0.37,12.22 0.38,12.09 0.38,11.8 0.37,11.33 0.38,10.72 0.38,9.95 0.37,9.08 0.38,8.12 0.38,7.11 0.38,6.09 0.37,5.06 0.38,4 0.38,2.88 0.37,1.72 0.38,0.53 0.38,-0.68 0.37,-1.84 0.38,-2.95 0.38,-3.96 0.37,-4.84 0.38,-5.62 0.38,-6.27 0.37,-6.86 0.38,-7.41 0.38,-7.95 0.37,-8.55 0.38,-9.21 0.38,-9.94 0.38,-10.67 0.37,-11.39 0.38,-12.03 0.38,-12.63 0.37,-13.14 0.38,-13.55 0.38,-13.84 0.37,-13.98 0.38,-13.95 0.38,-13.76 0.37,-13.36 0.38,-12.77 0.38,-11.99 0.37,-11.01 0.38,-9.85 0.38,-8.55 0.38,-7.14 0.37,-5.69 0.38,-4.27 0.38,-2.93 0.37,-1.68 0.38,-0.57 0.38,0.41 0.37,1.22 0.38,1.87 0.38,2.39 0.37,2.8 0.38,3.16 0.38,3.5 0.37,3.82 0.38,4.14 0.38,4.44 0.38,4.69 0.37,4.9 0.38,5.04 0.38,5.11 0.37,5.12 0.38,5.07 0.38,4.93 0.37,4.74 0.38,4.49 0.38,4.21 0.37,3.9 0.38,3.54 0.38,3.16 0.37,2.78 0.38,2.38 0.38,2.02 0.38,1.72 0.37,1.48 0.38,1.3 0.38,1.18 0.37,1.06 0.38,0.89 0.38,0.69 0.37,0.39 h 0.38 l 0.38,-0.47 0.37,-1.03 0.38,-1.64 0.38,-2.24 0.37,-2.82 0.38,-3.33 0.38,-3.74 0.38,-4.07 0.37,-4.3 0.38,-4.46 0.38,-4.61 0.37,-4.74 0.38,-4.9 0.38,-5.06 0.37,-5.23 0.38,-5.41 0.38,-5.58 0.37,-5.73 0.38,-5.84 0.38,-5.93 0.37,-5.97 0.38,-6.01 0.38,-6.05 0.38,-6.09 0.37,-6.17 0.38,-6.24 0.38,-6.28 0.37,-6.31 0.38,-6.28 0.38,-6.21 0.37,-6.13 0.38,-6.02 0.38,-5.88 0.37,-5.74 0.38,-5.57 0.38,-5.41 0.37,-5.26 0.38,-5.09 0.38,-4.9 0.38,-4.66 0.37,-4.34 0.38,-3.94 0.38,-3.46 0.37,-2.88 0.38,-2.27 0.38,-1.6 0.37,-0.91 0.38,-0.19 0.38,0.51 0.37,1.16 0.38,1.7 0.38,2.14 0.37,2.44 0.38,2.65 0.38,2.76 0.38,2.82 0.37,2.83 0.38,2.81 0.38,2.82 0.37,2.85 0.38,2.91 0.38,3.01 0.37,3.09 0.38,3.16 0.38,3.14 0.37,3.03 0.38,2.83 0.38,2.58 0.37,2.26 0.38,1.88 0.38,1.46 0.37,0.97 0.38,0.5 0.38,0.03 0.38,-0.36 0.37,-0.67 0.38,-0.88 0.38,-0.97 0.37,-0.98 0.38,-0.91 0.38,-0.78 0.37,-0.64 0.38,-0.5 0.38,-0.39 0.37,-0.36 0.38,-0.41 0.38,-0.51 0.37,-0.65 0.38,-0.79 0.38,-0.93 0.38,-1.05 0.37,-1.16 0.38,-1.2 0.38,-1.21 0.37,-1.13 0.38,-0.96 0.38,-0.74 0.37,-0.44 0.38,-0.11 0.38,0.2 0.37,0.49 0.38,0.71 0.38,0.81 0.37,0.79 0.38,0.63 0.38,0.29 0.38,-0.12 0.37,-0.63 0.38,-1.19 0.38,-1.74 0.37,-2.27 0.38,-2.72 0.38,-3.07 0.37,-3.31 0.38,-3.43 0.38,-3.41 0.37,-3.26 0.38,-3.02 0.38,-2.73 0.37,-2.43 0.38,-2.14 0.38,-1.86 0.38,-1.6 0.37,-1.34 0.38,-1.04 0.38,-0.7 0.37,-0.31 0.38,0.14 0.38,0.65 0.37,1.21 0.38,1.81 0.38,2.42 0.37,3.02 0.38,3.59 0.38,4.09 0.37,4.53 0.38,4.91 0.38,5.22 0.38,5.44 0.37,5.53 0.38,5.49 0.38,5.29 0.37,4.95 0.38,4.52 0.38,4.03 0.37,3.54 0.38,3.07 0.38,2.67 0.37,2.36 0.38,2.18 0.38,2.14 0.37,2.2 0.38,2.31 0.38,2.4 0.38,2.42 0.37,2.36 0.38,2.19 0.38,1.9 0.37,1.55 0.38,1.08 0.38,0.54 0.37,-0.02 0.38,-0.59 0.38,-1.14 0.37,-1.6 0.38,-2.02 0.38,-2.36 0.37,-2.61 0.38,-2.82 0.38,-2.93 0.38,-2.96 0.37,-2.92 0.38,-2.85 0.38,-2.76 0.37,-2.67 0.38,-2.58 0.38,-2.46 0.37,-2.34 0.38,-2.2 0.38,-2.03 0.37,-1.85 0.38,-1.6 0.38,-1.33 0.37,-0.98 0.38,-0.57 0.38,-0.12 0.38,0.38 0.37,0.89 0.38,1.38 0.38,1.87 0.37,2.34 0.38,2.76 0.38,3.15 0.37,3.47 0.38,3.75 0.38,3.98 0.37,4.14 0.38,4.25 0.38,4.3 0.37,4.3 0.38,4.3 0.38,4.29 0.37,4.34 0.38,4.41 0.38,4.57 0.38,4.79 0.37,5.07 0.38,5.39 0.38,5.71 0.37,5.98 0.38,6.2 0.38,6.3 0.37,6.28 0.38,6.15 0.38,5.95 0.37,5.67 0.38,5.38 0.38,5.11 0.37,4.92 0.38,4.84 0.38,4.89 0.38,5.04 0.37,5.27 0.38,5.5 0.38,5.68 0.37,5.79 0.38,5.76 0.38,5.59 0.37,5.31 0.38,4.9 0.38,4.42 0.37,3.89 0.38,3.33 0.38,2.73 0.37,2.13 0.38,1.46 0.38,0.75 h 0.38 l 0.37,-0.76 0.38,-1.43 0.38,-2 0.37,-2.41 0.38,-2.64 0.38,-2.72 0.37,-2.64 0.38,-2.48 0.38,-2.3 0.37,-2.14 0.38,-2.06 0.38,-2.1 0.37,-2.24 0.38,-2.44 0.38,-2.7 0.38,-2.92 0.37,-3.11 0.38,-3.25 0.38,-3.32 0.37,-3.34 0.38,-3.32 0.38,-3.24 0.37,-3.12 0.38,-2.98 0.38,-2.78 0.37,-2.55 0.38,-2.23 0.38,-1.83 0.37,-1.34 0.38,-0.82 0.38,-0.26 0.38,0.3 0.37,0.82 0.38,1.29 0.38,1.72 0.37,2.13 0.38,2.54 0.38,2.94 0.37,3.35 0.38,3.77 0.38,4.19 0.37,4.59 0.38,4.94 0.38,5.22 0.37,5.41 0.38,5.54 0.38,5.61 0.38,5.67 0.37,5.73 0.38,5.81 0.38,5.92 0.37,6.05 0.38,6.15 0.38,6.21 0.37,6.16 0.38,6 0.38,5.72 0.37,5.34 0.38,4.88 0.38,4.44 0.37,3.98 0.38,3.56 0.38,3.16 0.38,2.73 0.37,2.26 0.38,1.73 0.38,1.13 0.37,0.45 0.38,-0.24 0.38,-0.94 0.37,-1.59 0.38,-2.13 0.38,-2.57 0.37,-2.91 0.38,-3.14 0.38,-3.36 0.37,-3.55 0.38,-3.79 0.38,-4.11 0.38,-4.49 0.37,-4.95 0.38,-5.46 0.38,-5.99 0.37,-6.49 0.38,-6.9 0.38,-7.19 0.37,-7.33 0.38,-7.32 0.38,-7.18 0.37,-6.93 0.38,-6.62 0.38,-6.21 0.37,-5.78 0.38,-5.31 0.38,-4.86 0.37,-4.43 0.38,-4.02 0.38,-3.67 0.38,-3.37 0.37,-3.15 0.38,-3.04 0.38,-3.02 0.37,-3.09 0.38,-3.23 0.38,-3.38 0.37,-3.47 0.38,-3.5 0.38,-3.43 0.37,-3.23 0.38,-2.91 0.38,-2.46 0.37,-1.89 0.38,-1.27 0.38,-0.62 h 0.38 l 0.37,0.55 0.38,1.04 0.38,1.44 0.37,1.78 0.38,2.03 0.38,2.24 0.37,2.38 0.38,2.45 0.38,2.52 0.37,2.6 0.38,2.71 0.38,2.87 0.37,3.08 0.38,3.33 0.38,3.64 0.38,4 0.37,4.37 0.38,4.74 0.38,5.02 0.37,5.21 0.38,5.25 0.38,5.14 0.37,4.86 0.38,4.4 0.38,3.8 0.37,3.04 0.38,2.18 0.38,1.23 0.37,0.26 0.38,-0.7 0.38,-1.65 0.38,-2.55 0.37,-3.45 0.38,-4.31 0.38,-5.12 0.37,-5.89 0.38,-6.56 0.38,-7.16 0.37,-7.66 0.38,-8.07 0.38,-8.38 0.37,-8.63 0.38,-8.81 0.38,-8.96 0.37,-9.09 0.38,-9.15 0.38,-9.18 0.38,-9.1 0.37,-8.87 0.38,-8.51 0.38,-8 0.37,-7.36 0.38,-6.69 0.38,-6 0.37,-5.36 0.38,-4.79 0.38,-4.33 0.37,-3.93 0.38,-3.63 0.38,-3.33 0.37,-3.03 0.38,-2.72 0.38,-2.39 0.38,-2.04 0.37,-1.71 0.38,-1.41 0.38,-1.17 0.37,-0.98 0.38,-0.86 0.38,-0.75 0.37,-0.69 0.38,-0.64 0.38,-0.58 0.37,-0.57 0.38,-0.55 0.38,-0.57 0.37,-0.64 0.38,-0.71 0.38,-0.79 0.38,-0.86 0.37,-0.87 0.38,-0.82 0.38,-0.69 0.37,-0.43 0.38,-0.07 0.38,0.42 0.37,1.01 0.38,1.68 0.38,2.39 0.37,3.08 0.38,3.71 0.38,4.25 0.37,4.65 0.38,4.88 0.38,4.94 0.38,4.8 0.37,4.46 0.38,3.99 0.38,3.39 0.37,2.71 0.38,2 0.38,1.28 0.37,0.58 0.38,-0.04 0.38,-0.62 0.37,-1.11 0.38,-1.54 0.38,-1.93 0.37,-2.29 0.38,-2.59 0.38,-2.87 0.37,-3.1 0.38,-3.26 0.38,-3.37 0.38,-3.43 0.37,-3.47 0.38,-3.51 0.38,-3.54 0.37,-3.57 0.38,-3.62 0.38,-3.69 0.37,-3.75 0.38,-3.79 0.38,-3.77 0.37,-3.67 0.38,-3.47 0.38,-3.15 0.37,-2.78 0.38,-2.35 0.38,-1.89 0.38,-1.44 0.37,-0.98 0.38,-0.55 0.38,-0.12 0.37,0.27 0.38,0.65 0.38,1 0.37,1.36 0.38,1.7 0.38,2.05 0.37,2.38 0.38,2.67 0.38,2.92 0.37,3.12 0.38,3.29 0.38,3.4 0.38,3.49 0.37,3.52 0.38,3.5 0.38,3.43 0.37,3.32 0.38,3.23 0.38,3.16 0.37,3.15 0.38,3.23 0.38,3.38 0.37,3.61 0.38,3.9 0.38,4.23 0.37,4.53 0.38,4.76 0.38,4.89 0.38,4.9 0.37,4.79 0.38,4.58 0.38,4.24 0.37,3.82 0.38,3.31 0.38,2.67 0.37,1.95 0.38,1.11 0.38,0.17 0.37,-0.81 0.38,-1.81 0.38,-2.76 0.37,-3.63 0.38,-4.35 0.38,-4.9 0.38,-5.25 0.37,-5.44 0.38,-5.45 0.38,-5.32 0.37,-5.06 0.38,-4.71 0.38,-4.29 0.37,-3.84 0.38,-3.34 0.38,-2.87 0.37,-2.42 0.38,-2.03 0.38,-1.69 0.37,-1.42 0.38,-1.16 0.38,-0.95 0.38,-0.71 0.37,-0.47 0.38,-0.23 h 0.38 l 0.37,0.23 0.38,0.39 0.38,0.54 0.37,0.64 0.38,0.7 0.38,0.75 0.37,0.8 0.38,0.84 0.38,0.94 0.37,1.07 0.38,1.23 0.38,1.42 0.38,1.6 0.37,1.74 0.38,1.87 0.38,1.99 0.37,2.13 0.38,2.3 0.38,2.51 0.37,2.78 0.38,3.1 0.38,3.5 0.37,3.94 0.38,4.46 0.38,5.01 0.37,5.55 0.38,6.09 0.38,6.56 0.38,7.03 0.37,7.48 0.38,7.94 0.38,8.43 0.37,8.92 0.38,9.4 0.38,9.85 0.37,10.21 0.38,10.44 0.38,10.53 0.37,10.43 0.38,10.12 0.38,9.65 0.37,9.02 0.38,8.29 0.38,7.52 0.37,6.7 0.38,5.85 0.38,4.97 0.38,4.05 0.37,3.13 0.38,2.23 0.38,1.33 0.37,0.5 0.38,-0.28 0.38,-1 0.37,-1.65 0.38,-2.19 0.38,-2.66 0.37,-3.04 0.38,-3.33 0.38,-3.6 0.37,-3.84 0.38,-4.04 0.38,-4.24 0.38,-4.36 0.37,-4.44 0.38,-4.46 0.38,-4.46 0.37,-4.42 0.38,-4.39 0.38,-4.34 0.37,-4.32 0.38,-4.27 0.38,-4.23 0.37,-4.16 0.38,-4.06 0.38,-3.9 0.37,-3.67 0.38,-3.39 0.38,-3.1 0.38,-2.8 0.37,-2.51 0.38,-2.23 0.38,-1.95 0.37,-1.61 0.38,-1.19 0.38,-0.71 0.37,-0.11 0.38,0.52 0.38,1.21 0.37,1.92 0.38,2.62 0.38,3.29 0.37,3.94 0.38,4.5 0.38,5.03 0.38,5.51 0.37,5.96 0.38,6.39 0.38,6.82 0.37,7.24 0.38,7.64 0.38,8.03 0.37,8.33 0.38,8.56 0.38,8.69 0.37,8.68 0.38,8.54 0.38,8.31 0.37,7.97 0.38,7.55 0.38,7.08 0.38,6.59 0.37,6.06 0.38,5.53 0.38,4.97 0.37,4.37 0.38,3.75 0.38,3.11 0.37,2.46 0.38,1.82 0.38,1.19 0.37,0.6 0.38,0.03 0.38,-0.52 0.37,-1.03 0.38,-1.49 0.38,-1.91 0.38,-2.28 0.37,-2.64 0.38,-3.01 0.38,-3.4 0.37,-3.82 0.38,-4.25 0.38,-4.72 0.37,-5.23 0.38,-5.72 0.38,-6.24 0.37,-6.72 0.38,-7.16 0.38,-7.5 0.37,-7.77 0.38,-7.94 0.38,-8.01 0.38,-8.03 0.37,-7.95 0.38,-7.83 0.38,-7.65 0.37,-7.43 0.38,-7.18 0.38,-6.9 0.37,-6.57 0.38,-6.19 0.38,-5.74 0.37,-5.23 0.38,-4.67 0.38,-4.1 0.37,-3.49 0.38,-2.86 0.38,-2.21 0.38,-1.53 0.37,-0.85 0.38,-0.21 0.38,0.37 0.37,0.86 0.38,1.26 0.38,1.61 0.37,1.9 0.38,2.17 0.38,2.41 0.37,2.63 0.38,2.81 0.38,2.98 0.37,3.11 0.38,3.21 0.38,3.3 0.37,3.37 0.38,3.47 0.38,3.61 0.38,3.8 0.37,4.07 0.38,4.4 0.38,4.72 0.37,5.03 0.38,5.21 0.38,5.25 0.37,5.12 0.38,4.79 0.38,4.29 0.37,3.65 0.38,2.86 0.38,2.02 0.37,1.16 0.38,0.29 0.38,-0.56 0.38,-1.38 0.37,-2.22 0.38,-3.03 0.38,-3.88 0.37,-4.74 0.38,-5.58 0.38,-6.36 0.37,-7.08 0.38,-7.67 0.38,-8.17 0.37,-8.55 0.38,-8.81 0.38,-8.99 0.37,-9.07 0.38,-9.07 0.38,-8.98 0.38,-8.8 0.37,-8.52 0.38,-8.16 0.38,-7.71 0.37,-7.16 0.38,-6.55 0.38,-5.9 0.37,-5.21 0.38,-4.54 0.38,-3.88 0.37,-3.24 0.38,-2.66 0.38,-2.09 0.37,-1.57 0.38,-1.1 0.38,-0.69 0.38,-0.37 0.37,-0.14 0.38,0.01 0.38,0.08 0.37,0.06 0.38,-0.02 0.38,-0.17 0.37,-0.34 0.38,-0.52 0.38,-0.66 0.37,-0.79 0.38,-0.89 0.38,-0.98 0.37,-1.08 0.38,-1.16 0.38,-1.24 0.38,-1.28 0.37,-1.28 0.38,-1.25 0.38,-1.18 0.37,-1.08 0.38,-0.96 0.38,-0.81 0.37,-0.66 0.38,-0.55 0.38,-0.49 0.37,-0.5 0.38,-0.57 0.38,-0.63 0.37,-0.65 0.38,-0.62 0.38,-0.52 0.38,-0.39 0.37,-0.27 0.38,-0.16 0.38,-0.09 0.37,-0.07 0.38,-0.1 0.38,-0.21 0.37,-0.37 0.38,-0.61 0.38,-0.9 0.37,-1.22 0.38,-1.52 0.38,-1.86 0.37,-2.19 0.38,-2.55 0.38,-2.91 0.38,-3.24 0.37,-3.51 0.38,-3.72 0.38,-3.85 0.37,-3.88 0.38,-3.84 0.38,-3.69 0.37,-3.45 0.38,-3.14 0.38,-2.72 0.37,-2.26 0.38,-1.75 0.38,-1.25 0.37,-0.74 0.38,-0.25 0.38,0.24 0.18,0.33"
           id="path216" />
      </g>
    </g>
    <g
       id="gnuplot_plot_2">
      <title
         id="title221">butter filtered</title>
      <g
         fill="none"
         color="#000000"
         stroke="currentColor"
         stroke-width="5"
         stroke-linecap="butt"
         stroke-linejoin="miter"
         id="g229">
        <g
           transform="translate(953.43,141.51)"
           stroke="none"
           fill="#000000"
           font-family="Arial"
           font-size="20px"
           text-anchor="end"
           id="g227">
          <text
             id="text225"><tspan
               font-family="Arial"
               id="tspan223">butter filtered</tspan></text>
        </g>
      </g>
      <g
         fill="none"
         color="#000000"
         stroke="currentColor"
         stroke-width="5"
         stroke-linecap="butt"
         stroke-linejoin="miter"
         id="g233">
        <path
           stroke="#ff0000"
           d="m 967.43,135.01 h 65 M 120,767.21 l 0.38,-6.65 0.37,-6.66 0.38,-6.67 0.38,-6.67 0.37,-6.67 0.38,-6.67 0.38,-6.67 0.37,-6.67 0.38,-6.67 0.38,-6.65 0.38,-6.65 0.37,-6.64 0.38,-6.62 0.38,-6.61 0.37,-6.6 0.38,-6.58 0.38,-6.56 0.37,-6.54 0.38,-6.52 0.38,-6.49 0.37,-6.47 0.38,-6.44 0.38,-6.41 0.37,-6.38 0.38,-6.35 0.38,-6.32 0.38,-6.29 0.37,-6.24 0.38,-6.21 0.38,-6.17 0.37,-6.13 0.38,-6.09 0.38,-6.05 0.37,-6 0.38,-5.96 0.38,-5.92 0.37,-5.86 0.38,-5.82 0.38,-5.76 0.37,-5.72 0.38,-5.66 0.38,-5.62 0.38,-5.56 0.37,-5.5 0.38,-5.45 0.38,-5.39 0.37,-5.34 0.38,-5.28 0.38,-5.22 0.37,-5.16 0.38,-5.11 0.38,-5.04 0.37,-4.98 0.38,-4.92 0.38,-4.86 0.37,-4.8 0.38,-4.73 0.38,-4.67 0.38,-4.61 0.37,-4.55 0.38,-4.48 0.38,-4.42 0.37,-4.35 0.38,-4.29 0.38,-4.22 0.37,-4.16 0.38,-4.1 0.38,-4.03 0.37,-3.97 0.38,-3.9 0.38,-3.83 0.37,-3.78 0.38,-3.7 0.38,-3.65 0.38,-3.58 0.37,-3.51 0.38,-3.46 0.38,-3.39 0.37,-3.32 0.38,-3.27 0.38,-3.2 0.37,-3.14 0.38,-3.07 0.38,-3.02 0.37,-2.96 0.38,-2.89 0.38,-2.84 0.37,-2.77 0.38,-2.72 0.38,-2.66 0.38,-2.6 0.37,-2.55 0.38,-2.48 0.38,-2.44 0.37,-2.37 0.38,-2.32 0.38,-2.27 0.37,-2.22 0.38,-2.16 0.38,-2.11 0.37,-2.06 0.38,-2.01 0.38,-1.95 0.37,-1.91 0.38,-1.86 0.38,-1.82 0.38,-1.76 0.37,-1.72 0.38,-1.67 0.38,-1.63 0.37,-1.59 0.38,-1.54 0.38,-1.5 0.37,-1.46 0.38,-1.41 0.38,-1.38 0.37,-1.34 0.38,-1.3 0.38,-1.26 0.37,-1.22 0.38,-1.19 0.38,-1.15 0.38,-1.12 0.37,-1.08 0.38,-1.05 0.38,-1.01 0.37,-0.99 0.38,-0.95 0.38,-0.92 0.37,-0.9 0.38,-0.86 0.38,-0.83 0.37,-0.81 0.38,-0.78 0.38,-0.75 0.37,-0.73 0.38,-0.7 0.38,-0.68 0.37,-0.66 0.38,-0.63 0.38,-0.6 0.38,-0.59 0.37,-0.56 0.38,-0.54 0.38,-0.52 0.37,-0.5 0.38,-0.48 0.38,-0.47 0.37,-0.44 0.38,-0.42 0.38,-0.41 0.37,-0.39 0.38,-0.37 0.38,-0.35 0.37,-0.34 0.38,-0.33 0.38,-0.3 0.38,-0.29 0.37,-0.28 0.38,-0.26 0.38,-0.25 0.37,-0.23 0.38,-0.22 0.38,-0.2 0.37,-0.19 0.38,-0.18 0.38,-0.17 0.37,-0.15 0.38,-0.14 0.38,-0.12 0.37,-0.11 0.38,-0.1 0.38,-0.09 0.38,-0.08 0.37,-0.06 0.38,-0.05 0.38,-0.04 0.37,-0.02 0.38,-0.02 h 0.38 l 0.37,0.01 0.38,0.03 0.38,0.03 0.37,0.05 0.38,0.06 0.38,0.08 0.37,0.08 0.38,0.1 0.38,0.11 0.38,0.13 0.37,0.14 0.38,0.15 0.38,0.17 0.37,0.17 0.38,0.2 0.38,0.2 0.37,0.22 0.38,0.24 0.38,0.25 0.37,0.26 0.38,0.28 0.38,0.3 0.37,0.31 0.38,0.32 0.38,0.34 0.38,0.36 0.37,0.37 0.38,0.39 0.38,0.41 0.37,0.42 0.38,0.44 0.38,0.46 0.37,0.48 0.38,0.49 0.38,0.51 0.37,0.53 0.38,0.55 0.38,0.56 0.37,0.59 0.38,0.6 0.38,0.63 0.38,0.64 0.37,0.66 0.38,0.68 0.38,0.71 0.37,0.72 0.38,0.74 0.38,0.77 0.37,0.78 0.38,0.81 0.38,0.82 0.37,0.85 0.38,0.87 0.38,0.89 0.37,0.91 0.38,0.94 0.38,0.95 0.38,0.98 0.37,1 0.38,1.02 0.38,1.05 0.37,1.07 0.38,1.08 0.38,1.12 0.37,1.13 0.38,1.16 0.38,1.17 0.37,1.2 0.38,1.23 0.38,1.24 0.37,1.27 0.38,1.29 0.38,1.31 0.38,1.34 0.37,1.35 0.38,1.38 0.38,1.4 0.37,1.42 0.38,1.44 0.38,1.46 0.37,1.49 0.38,1.5 0.38,1.53 0.37,1.55 0.38,1.56 0.38,1.59 0.37,1.61 0.38,1.62 0.38,1.65 0.37,1.66 0.38,1.68 0.38,1.71 0.38,1.71 0.37,1.74 0.38,1.76 0.38,1.77 0.37,1.78 0.38,1.81 0.38,1.82 0.37,1.83 0.38,1.85 0.38,1.87 0.37,1.87 0.38,1.9 0.38,1.9 0.37,1.92 0.38,1.93 0.38,1.94 0.38,1.95 0.37,1.97 0.38,1.97 0.38,1.98 0.37,2 0.38,2 0.38,2.01 0.37,2.01 0.38,2.03 0.38,2.03 0.37,2.03 0.38,2.04 0.38,2.05 0.37,2.05 0.38,2.05 0.38,2.05 0.38,2.06 0.37,2.06 0.38,2.06 0.38,2.06 0.37,2.06 0.38,2.05 0.38,2.06 0.37,2.05 0.38,2.06 0.38,2.04 0.37,2.04 0.38,2.04 0.38,2.03 0.37,2.03 0.38,2.02 0.38,2.01 0.38,2 0.37,2 0.38,1.98 0.38,1.98 0.37,1.96 0.38,1.95 0.38,1.94 0.37,1.93 0.38,1.91 0.38,1.9 0.37,1.88 0.38,1.87 0.38,1.85 0.37,1.84 0.38,1.82 0.38,1.8 0.38,1.78 0.37,1.76 0.38,1.74 0.38,1.73 0.37,1.7 0.38,1.68 0.38,1.65 0.37,1.64 0.38,1.61 0.38,1.59 0.37,1.56 0.38,1.54 0.38,1.51 0.37,1.49 0.38,1.46 0.38,1.43 0.38,1.41 0.37,1.38 0.38,1.35 0.38,1.32 0.37,1.29 0.38,1.26 0.38,1.23 0.37,1.2 0.38,1.17 0.38,1.13 0.37,1.11 0.38,1.07 0.38,1.04 0.37,1.01 0.38,0.98 0.38,0.94 0.38,0.9 0.37,0.87 0.38,0.84 0.38,0.81 0.37,0.76 0.38,0.73 0.38,0.7 0.37,0.66 0.38,0.63 0.38,0.59 0.37,0.55 0.38,0.51 0.38,0.48 0.37,0.44 0.38,0.41 0.38,0.37 0.38,0.33 0.37,0.29 0.38,0.25 0.38,0.22 0.37,0.18 0.38,0.15 0.38,0.1 0.37,0.07 0.38,0.03 0.38,-0.01 0.37,-0.04 0.38,-0.08 0.38,-0.12 0.37,-0.16 0.38,-0.19 0.38,-0.23 0.37,-0.27 0.38,-0.31 0.38,-0.34 0.38,-0.38 0.37,-0.41 0.38,-0.45 0.38,-0.49 0.37,-0.52 0.38,-0.56 0.38,-0.59 0.37,-0.63 0.38,-0.66 0.38,-0.7 0.37,-0.73 0.38,-0.77 0.38,-0.8 0.37,-0.84 0.38,-0.86 0.38,-0.9 0.38,-0.93 0.37,-0.97 0.38,-1 0.38,-1.02 0.37,-1.06 0.38,-1.09 0.38,-1.12 0.37,-1.15 0.38,-1.18 0.38,-1.21 0.37,-1.23 0.38,-1.27 0.38,-1.29 0.37,-1.32 0.38,-1.35 0.38,-1.37 0.38,-1.4 0.37,-1.42 0.38,-1.45 0.38,-1.48 0.37,-1.49 0.38,-1.52 0.38,-1.55 0.37,-1.56 0.38,-1.59 0.38,-1.61 0.37,-1.63 0.38,-1.65 0.38,-1.67 0.37,-1.69 0.38,-1.71 0.38,-1.73 0.38,-1.74 0.37,-1.77 0.38,-1.77 0.38,-1.8 0.37,-1.81 0.38,-1.82 0.38,-1.84 0.37,-1.85 0.38,-1.87 0.38,-1.87 0.37,-1.89 0.38,-1.91 0.38,-1.91 0.37,-1.92 0.38,-1.93 0.38,-1.94 0.38,-1.95 0.37,-1.96 0.38,-1.97 0.38,-1.97 0.37,-1.98 0.38,-1.98 0.38,-1.99 0.37,-2 0.38,-1.99 0.38,-2 0.37,-2.01 0.38,-2.01 0.38,-2.01 0.37,-2.01 0.38,-2.01 0.38,-2.01 0.38,-2.01 0.37,-2.01 0.38,-2.01 0.38,-2 0.37,-2.01 0.38,-2 0.38,-1.99 0.37,-2 0.38,-1.99 0.38,-1.98 0.37,-1.98 0.38,-1.97 0.38,-1.97 0.37,-1.95 0.38,-1.95 0.38,-1.95 0.38,-1.93 0.37,-1.93 0.38,-1.91 0.38,-1.91 0.37,-1.9 0.38,-1.88 0.38,-1.87 0.37,-1.87 0.38,-1.85 0.38,-1.83 0.37,-1.83 0.38,-1.81 0.38,-1.8 0.37,-1.78 0.38,-1.77 0.38,-1.75 0.38,-1.74 0.37,-1.72 0.38,-1.71 0.38,-1.69 0.37,-1.67 0.38,-1.65 0.38,-1.64 0.37,-1.62 0.38,-1.6 0.38,-1.58 0.37,-1.57 0.38,-1.54 0.38,-1.53 0.37,-1.5 0.38,-1.48 0.38,-1.47 0.37,-1.44 0.38,-1.42 0.38,-1.4 0.38,-1.37 0.37,-1.36 0.38,-1.33 0.38,-1.31 0.37,-1.28 0.38,-1.26 0.38,-1.24 0.37,-1.22 0.38,-1.19 0.38,-1.16 0.37,-1.14 0.38,-1.12 0.38,-1.09 0.37,-1.06 0.38,-1.04 0.38,-1.02 0.38,-0.98 0.37,-0.96 0.38,-0.94 0.38,-0.9 0.37,-0.88 0.38,-0.86 0.38,-0.82 0.37,-0.8 0.38,-0.77 0.38,-0.74 0.37,-0.71 0.38,-0.68 0.38,-0.66 0.37,-0.63 0.38,-0.59 0.38,-0.57 0.38,-0.54 0.37,-0.51 0.38,-0.48 0.38,-0.45 0.37,-0.42 0.38,-0.39 0.38,-0.36 0.37,-0.33 0.38,-0.3 0.38,-0.27 0.37,-0.24 0.38,-0.2 0.38,-0.18 0.37,-0.15 0.38,-0.11 0.38,-0.08 0.38,-0.06 0.37,-0.02 0.38,0.01 0.38,0.05 0.37,0.07 0.38,0.1 0.38,0.14 0.37,0.17 0.38,0.2 0.38,0.23 0.37,0.26 0.38,0.3 0.38,0.32 0.37,0.36 0.38,0.39 0.38,0.42 0.38,0.45 0.37,0.49 0.38,0.51 0.38,0.55 0.37,0.58 0.38,0.61 0.38,0.64 0.37,0.67 0.38,0.7 0.38,0.74 0.37,0.76 0.38,0.8 0.38,0.83 0.37,0.85 0.38,0.89 0.38,0.92 0.38,0.94 0.37,0.98 0.38,1.01 0.38,1.04 0.37,1.06 0.38,1.1 0.38,1.12 0.37,1.15 0.38,1.19 0.38,1.21 0.37,1.23 0.38,1.27 0.38,1.29 0.37,1.32 0.38,1.35 0.38,1.38 0.38,1.4 0.37,1.43 0.38,1.45 0.38,1.48 0.37,1.5 0.38,1.53 0.38,1.56 0.37,1.57 0.38,1.61 0.38,1.62 0.37,1.65 0.38,1.67 0.38,1.7 0.37,1.71 0.38,1.74 0.38,1.76 0.38,1.78 0.37,1.8 0.38,1.81 0.38,1.84 0.37,1.86 0.38,1.88 0.38,1.89 0.37,1.91 0.38,1.93 0.38,1.95 0.37,1.96 0.38,1.98 0.38,1.99 0.37,2.01 0.38,2.02 0.38,2.03 0.37,2.05 0.38,2.06 0.38,2.07 0.38,2.09 0.37,2.09 0.38,2.1 0.38,2.12 0.37,2.12 0.38,2.13 0.38,2.14 0.37,2.15 0.38,2.15 0.38,2.16 0.37,2.17 0.38,2.17 0.38,2.18 0.37,2.17 0.38,2.19 0.38,2.18 0.38,2.19 0.37,2.19 0.38,2.18 0.38,2.19 0.37,2.19 0.38,2.19 0.38,2.18 0.37,2.19 0.38,2.18 0.38,2.17 0.37,2.17 0.38,2.17 0.38,2.16 0.37,2.16 0.38,2.14 0.38,2.14 0.38,2.14 0.37,2.12 0.38,2.11 0.38,2.11 0.37,2.09 0.38,2.08 0.38,2.07 0.37,2.06 0.38,2.05 0.38,2.03 0.37,2.01 0.38,2 0.38,1.99 0.37,1.97 0.38,1.95 0.38,1.94 0.38,1.91 0.37,1.9 0.38,1.88 0.38,1.86 0.37,1.84 0.38,1.82 0.38,1.79 0.37,1.78 0.38,1.75 0.38,1.73 0.37,1.7 0.38,1.68 0.38,1.66 0.37,1.63 0.38,1.6 0.38,1.58 0.38,1.55 0.37,1.52 0.38,1.5 0.38,1.47 0.37,1.44 0.38,1.4 0.38,1.38 0.37,1.35 0.38,1.32 0.38,1.29 0.37,1.25 0.38,1.23 0.38,1.19 0.37,1.16 0.38,1.13 0.38,1.09 0.38,1.06 0.37,1.02 0.38,0.99 0.38,0.96 0.37,0.92 0.38,0.88 0.38,0.85 0.37,0.82 0.38,0.78 0.38,0.74 0.37,0.7 0.38,0.67 0.38,0.63 0.37,0.59 0.38,0.56 0.38,0.52 0.38,0.48 0.37,0.44 0.38,0.4 0.38,0.37 0.37,0.33 0.38,0.29 0.38,0.25 0.37,0.21 0.38,0.17 0.38,0.14 0.37,0.1 0.38,0.05 0.38,0.02 0.37,-0.02 0.38,-0.06 0.38,-0.09 0.38,-0.14 0.37,-0.18 0.38,-0.21 0.38,-0.25 0.37,-0.29 0.38,-0.33 0.38,-0.37 0.37,-0.4 0.38,-0.44 0.38,-0.48 0.37,-0.52 0.38,-0.56 0.38,-0.59 0.37,-0.63 0.38,-0.66 0.38,-0.71 0.37,-0.74 0.38,-0.77 0.38,-0.81 0.38,-0.85 0.37,-0.88 0.38,-0.92 0.38,-0.95 0.37,-0.98 0.38,-1.02 0.38,-1.06 0.37,-1.08 0.38,-1.12 0.38,-1.15 0.37,-1.19 0.38,-1.22 0.38,-1.24 0.37,-1.28 0.38,-1.31 0.38,-1.34 0.38,-1.37 0.37,-1.4 0.38,-1.43 0.38,-1.46 0.37,-1.48 0.38,-1.51 0.38,-1.54 0.37,-1.57 0.38,-1.59 0.38,-1.62 0.37,-1.64 0.38,-1.67 0.38,-1.69 0.37,-1.71 0.38,-1.74 0.38,-1.76 0.38,-1.78 0.37,-1.81 0.38,-1.82 0.38,-1.85 0.37,-1.86 0.38,-1.88 0.38,-1.91 0.37,-1.92 0.38,-1.93 0.38,-1.96 0.37,-1.97 0.38,-1.99 0.38,-2 0.37,-2.01 0.38,-2.03 0.38,-2.05 0.38,-2.05 0.37,-2.07 0.38,-2.08 0.38,-2.09 0.37,-2.1 0.38,-2.11 0.38,-2.12 0.37,-2.13 0.38,-2.14 0.38,-2.14 0.37,-2.15 0.38,-2.16 0.38,-2.16 0.37,-2.17 0.38,-2.17 0.38,-2.17 0.38,-2.18 0.37,-2.18 0.38,-2.18 0.38,-2.19 0.37,-2.18 0.38,-2.19 0.38,-2.18 0.37,-2.19 0.38,-2.18 0.38,-2.18 0.37,-2.18 0.38,-2.17 0.38,-2.17 0.37,-2.17 0.38,-2.16 0.38,-2.15 0.38,-2.15 0.37,-2.15 0.38,-2.13 0.38,-2.13 0.37,-2.12 0.38,-2.11 0.38,-2.1 0.37,-2.1 0.38,-2.08 0.38,-2.07 0.37,-2.06 0.38,-2.05 0.38,-2.04 0.37,-2.02 0.38,-2.01 0.38,-2 0.38,-1.98 0.37,-1.97 0.38,-1.95 0.38,-1.94 0.37,-1.92 0.38,-1.9 0.38,-1.89 0.37,-1.87 0.38,-1.85 0.38,-1.84 0.37,-1.81 0.38,-1.8 0.38,-1.78 0.37,-1.76 0.38,-1.73 0.38,-1.72 0.38,-1.7 0.37,-1.67 0.38,-1.65 0.38,-1.63 0.37,-1.61 0.38,-1.59 0.38,-1.56 0.37,-1.54 0.38,-1.51 0.38,-1.49 0.37,-1.47 0.38,-1.44 0.38,-1.41 0.37,-1.39 0.38,-1.37 0.38,-1.34 0.37,-1.31 0.38,-1.28 0.38,-1.26 0.38,-1.23 0.37,-1.21 0.38,-1.17 0.38,-1.15 0.37,-1.12 0.38,-1.1 0.38,-1.06 0.37,-1.03 0.38,-1.01 0.38,-0.98 0.37,-0.94 0.38,-0.92 0.38,-0.89 0.37,-0.86 0.38,-0.83 0.38,-0.79 0.38,-0.77 0.37,-0.74 0.38,-0.7 0.38,-0.68 0.37,-0.64 0.38,-0.61 0.38,-0.59 0.37,-0.55 0.38,-0.52 0.38,-0.48 0.37,-0.46 0.38,-0.42 0.38,-0.4 0.37,-0.36 0.38,-0.33 0.38,-0.29 0.38,-0.27 0.37,-0.23 0.38,-0.2 0.38,-0.17 0.37,-0.14 0.38,-0.1 0.38,-0.08 0.37,-0.04 0.38,-0.01 0.38,0.03 0.37,0.05 0.38,0.09 0.38,0.12 0.37,0.15 0.38,0.18 0.38,0.21 0.38,0.25 0.37,0.28 0.38,0.3 0.38,0.34 0.37,0.38 0.38,0.4 0.38,0.43 0.37,0.47 0.38,0.49 0.38,0.53 0.37,0.56 0.38,0.58 0.38,0.62 0.37,0.65 0.38,0.68 0.38,0.7 0.38,0.74 0.37,0.77 0.38,0.79 0.38,0.83 0.37,0.85 0.38,0.88 0.38,0.91 0.37,0.94 0.38,0.97 0.38,0.99 0.37,1.03 0.38,1.05 0.38,1.07 0.37,1.11 0.38,1.13 0.38,1.15 0.38,1.19 0.37,1.2 0.38,1.24 0.38,1.26 0.37,1.28 0.38,1.31 0.38,1.33 0.37,1.36 0.38,1.38 0.38,1.4 0.37,1.43 0.38,1.45 0.38,1.47 0.37,1.49 0.38,1.52 0.38,1.53 0.38,1.56 0.37,1.58 0.38,1.6 0.38,1.61 0.37,1.64 0.38,1.66 0.38,1.67 0.37,1.7 0.38,1.71 0.38,1.73 0.37,1.75 0.38,1.76 0.38,1.78 0.37,1.79 0.38,1.81 0.38,1.83 0.38,1.84 0.37,1.85 0.38,1.87 0.38,1.88 0.37,1.9 0.38,1.91 0.38,1.91 0.37,1.93 0.38,1.95 0.38,1.95 0.37,1.96 0.38,1.97 0.38,1.98 0.37,1.99 0.38,2 0.38,2 0.37,2.01 0.38,2.02 0.38,2.03 0.38,2.03 0.37,2.04 0.38,2.04 0.38,2.04 0.37,2.05 0.38,2.05 0.38,2.05 0.37,2.06 0.38,2.06 0.38,2.06 0.37,2.06 0.38,2.06 0.38,2.05 0.37,2.06 0.38,2.06 0.38,2.05 0.38,2.05 0.37,2.05 0.38,2.05 0.38,2.04 0.37,2.03 0.38,2.03 0.38,2.02 0.37,2.02 0.38,2.01 0.38,2 0.37,2 0.38,1.99 0.38,1.97 0.37,1.97 0.38,1.96 0.38,1.94 0.38,1.94 0.37,1.92 0.38,1.91 0.38,1.9 0.37,1.89 0.38,1.87 0.38,1.85 0.37,1.84 0.38,1.83 0.38,1.81 0.37,1.79 0.38,1.78 0.38,1.76 0.37,1.74 0.38,1.72 0.38,1.7 0.38,1.68 0.37,1.67 0.38,1.64 0.38,1.62 0.37,1.6 0.38,1.58 0.38,1.56 0.37,1.53 0.38,1.51 0.38,1.48 0.37,1.47 0.38,1.43 0.38,1.41 0.37,1.39 0.38,1.36 0.38,1.34 0.38,1.3 0.37,1.28 0.38,1.26 0.38,1.22 0.37,1.2 0.38,1.17 0.38,1.14 0.37,1.1 0.38,1.09 0.38,1.05 0.37,1.02 0.38,0.98 0.38,0.96 0.37,0.93 0.38,0.9 0.38,0.86 0.38,0.83 0.37,0.8 0.38,0.77 0.38,0.73 0.37,0.7 0.38,0.67 0.38,0.63 0.37,0.6 0.38,0.57 0.38,0.53 0.37,0.5 0.38,0.46 0.38,0.43 0.37,0.4 0.38,0.36 0.38,0.32 0.38,0.29 0.37,0.26 0.38,0.22 0.38,0.18 0.37,0.15 0.38,0.11 0.38,0.08 0.37,0.04 0.38,0.01 0.38,-0.03 0.37,-0.07 0.38,-0.1 0.38,-0.13 0.37,-0.18 0.38,-0.2 0.38,-0.25 0.38,-0.27 0.37,-0.32 0.38,-0.35 0.38,-0.38 0.37,-0.42 0.38,-0.45 0.38,-0.49 0.37,-0.52 0.38,-0.56 0.38,-0.59 0.37,-0.63 0.38,-0.66 0.38,-0.7 0.37,-0.72 0.38,-0.77 0.38,-0.79 0.37,-0.83 0.38,-0.86 0.38,-0.89 0.38,-0.93 0.37,-0.96 0.38,-0.98 0.38,-1.03 0.37,-1.05 0.38,-1.08 0.38,-1.11 0.37,-1.15 0.38,-1.17 0.38,-1.2 0.37,-1.24 0.38,-1.26 0.38,-1.29 0.37,-1.31 0.38,-1.35 0.38,-1.37 0.38,-1.4 0.37,-1.43 0.38,-1.45 0.38,-1.48 0.37,-1.5 0.38,-1.53 0.38,-1.56 0.37,-1.57 0.38,-1.6 0.38,-1.63 0.37,-1.64 0.38,-1.67 0.38,-1.69 0.37,-1.71 0.38,-1.74 0.38,-1.75 0.38,-1.77 0.37,-1.79 0.38,-1.81 0.38,-1.83 0.37,-1.85 0.38,-1.86 0.38,-1.88 0.37,-1.9 0.38,-1.91 0.38,-1.92 0.37,-1.95 0.38,-1.95 0.38,-1.97 0.37,-1.98 0.38,-1.99 0.38,-2.01 0.38,-2.02 0.37,-2.02 0.38,-2.04 0.38,-2.05 0.37,-2.06 0.38,-2.06 0.38,-2.07 0.37,-2.08 0.38,-2.09 0.38,-2.09 0.37,-2.1 0.38,-2.1 0.38,-2.11 0.37,-2.11 0.38,-2.12 0.38,-2.12 0.38,-2.12 0.37,-2.12 0.38,-2.12 0.38,-2.13 0.37,-2.12 0.38,-2.12 0.38,-2.12 0.37,-2.12 0.38,-2.12 0.38,-2.12 0.37,-2.11 0.38,-2.1 0.38,-2.11 0.37,-2.1 0.38,-2.09 0.38,-2.08 0.38,-2.08 0.37,-2.08 0.38,-2.06 0.38,-2.06 0.37,-2.04 0.38,-2.04 0.38,-2.03 0.37,-2.02 0.38,-2 0.38,-2 0.37,-1.98 0.38,-1.98 0.38,-1.95 0.37,-1.95 0.38,-1.93 0.38,-1.92 0.38,-1.9 0.37,-1.88 0.38,-1.87 0.38,-1.86 0.37,-1.84 0.38,-1.82 0.38,-1.8 0.37,-1.78 0.38,-1.77 0.38,-1.75 0.37,-1.72 0.38,-1.71 0.38,-1.69 0.37,-1.67 0.38,-1.64 0.38,-1.62 0.38,-1.61 0.37,-1.58 0.38,-1.55 0.38,-1.54 0.37,-1.51 0.38,-1.48 0.38,-1.47 0.37,-1.44 0.38,-1.41 0.38,-1.39 0.37,-1.36 0.38,-1.34 0.38,-1.31 0.37,-1.28 0.38,-1.26 0.38,-1.23 0.37,-1.2 0.38,-1.17 0.38,-1.15 0.38,-1.12 0.37,-1.09 0.38,-1.06 0.38,-1.03 0.37,-1.01 0.38,-0.97 0.38,-0.95 0.37,-0.91 0.38,-0.88 0.38,-0.86 0.37,-0.82 0.38,-0.79 0.38,-0.76 0.37,-0.73 0.38,-0.7 0.38,-0.67 0.38,-0.64 0.37,-0.6 0.38,-0.58 0.38,-0.54 0.37,-0.5 0.38,-0.48 0.38,-0.45 0.37,-0.41 0.38,-0.38 0.38,-0.34 0.37,-0.32 0.38,-0.28 0.38,-0.25 0.37,-0.21 0.38,-0.19 0.38,-0.15 0.38,-0.11 0.37,-0.09 0.38,-0.05 0.38,-0.01 0.37,0.01 0.38,0.05 0.38,0.08 0.37,0.11 0.38,0.15 0.38,0.18 0.37,0.21 0.38,0.25 0.38,0.28 0.37,0.31 0.38,0.34 0.38,0.38 0.38,0.41 0.37,0.44 0.38,0.47 0.38,0.51 0.37,0.54 0.38,0.56 0.38,0.61 0.37,0.63 0.38,0.66 0.38,0.7 0.37,0.73 0.38,0.75 0.38,0.79 0.37,0.82 0.38,0.85 0.38,0.88 0.38,0.91 0.37,0.94 0.38,0.97 0.38,1 0.37,1.03 0.38,1.06 0.38,1.09 0.37,1.11 0.38,1.15 0.38,1.17 0.37,1.2 0.38,1.22 0.38,1.26 0.37,1.28 0.38,1.3 0.38,1.34 0.38,1.35 0.37,1.39 0.38,1.41 0.38,1.43 0.37,1.46 0.38,1.49 0.38,1.51 0.37,1.53 0.38,1.55 0.38,1.58 0.37,1.6 0.38,1.62 0.38,1.64 0.37,1.67 0.38,1.68 0.38,1.71 0.38,1.72 0.37,1.75 0.38,1.77 0.38,1.78 0.37,1.8 0.38,1.82 0.38,1.84 0.37,1.85 0.38,1.87 0.38,1.89 0.37,1.9 0.38,1.92 0.38,1.93 0.37,1.95 0.38,1.96 0.38,1.97 0.38,1.98 0.37,2 0.38,2.01 0.38,2.02 0.37,2.03 0.38,2.04 0.38,2.05 0.37,2.06 0.38,2.07 0.38,2.08 0.37,2.08 0.38,2.09 0.38,2.09 0.37,2.11 0.38,2.1 0.38,2.11 0.37,2.12 0.38,2.12 0.38,2.12 0.38,2.12 0.37,2.13 0.38,2.13 0.38,2.12 0.37,2.13 0.38,2.13 0.38,2.12 0.37,2.13 0.38,2.12 0.38,2.12 0.37,2.11 0.38,2.11 0.38,2.11 0.37,2.1 0.38,2.09 0.38,2.09 0.38,2.08 0.37,2.08 0.38,2.06 0.38,2.06 0.37,2.04 0.38,2.04 0.38,2.03 0.37,2.01 0.38,2 0.38,1.99 0.37,1.98 0.38,1.96 0.38,1.95 0.37,1.94 0.38,1.92 0.38,1.9 0.38,1.89 0.37,1.87 0.38,1.85 0.38,1.83 0.37,1.82 0.38,1.79 0.38,1.78 0.37,1.76 0.38,1.73 0.38,1.71 0.37,1.7 0.38,1.66 0.38,1.65 0.37,1.62 0.38,1.6 0.38,1.58 0.38,1.55 0.37,1.52 0.38,1.5 0.38,1.47 0.37,1.44 0.38,1.42 0.38,1.39 0.37,1.36 0.38,1.34 0.38,1.3 0.37,1.28 0.38,1.24 0.38,1.22 0.37,1.18 0.38,1.16 0.38,1.12 0.38,1.09 0.37,1.06 0.38,1.03 0.38,0.99 0.37,0.96 0.38,0.93 0.38,0.89 0.37,0.86 0.38,0.83 0.38,0.79 0.37,0.76 0.38,0.72 0.38,0.69 0.37,0.65 0.38,0.62 0.38,0.58 0.38,0.55 0.37,0.51 0.38,0.47 0.38,0.44 0.37,0.4 0.38,0.36 0.38,0.33 0.37,0.29 0.38,0.25 0.38,0.22 0.37,0.18 0.38,0.14 0.38,0.1 0.37,0.07 0.38,0.03 0.38,-0.01 0.38,-0.04 0.37,-0.08 0.38,-0.12 0.38,-0.16 0.37,-0.19 0.38,-0.23 0.38,-0.27 0.37,-0.31 0.38,-0.34 0.38,-0.38 0.37,-0.41 0.38,-0.45 0.38,-0.49 0.37,-0.52 0.38,-0.57 0.38,-0.59 0.38,-0.63 0.37,-0.67 0.38,-0.7 0.38,-0.74 0.37,-0.77 0.38,-0.81 0.38,-0.84 0.37,-0.88 0.38,-0.91 0.38,-0.94 0.37,-0.98 0.38,-1.01 0.38,-1.04 0.37,-1.07 0.38,-1.11 0.38,-1.13 0.37,-1.17 0.38,-1.2 0.38,-1.23 0.38,-1.26 0.37,-1.29 0.38,-1.32 0.38,-1.35 0.37,-1.38 0.38,-1.4 0.38,-1.44 0.37,-1.46 0.38,-1.48 0.38,-1.51 0.37,-1.54 0.38,-1.57 0.38,-1.59 0.37,-1.61 0.38,-1.64 0.38,-1.66 0.38,-1.68 0.37,-1.71 0.38,-1.72 0.38,-1.75 0.37,-1.77 0.38,-1.79 0.38,-1.81 0.37,-1.83 0.38,-1.85 0.38,-1.87 0.37,-1.88 0.38,-1.9 0.38,-1.92 0.37,-1.93 0.38,-1.95 0.38,-1.97 0.38,-1.97 0.37,-1.99 0.38,-2.01 0.38,-2.02 0.37,-2.02 0.38,-2.04 0.38,-2.06 0.37,-2.06 0.38,-2.07 0.38,-2.08 0.37,-2.08 0.38,-2.1 0.38,-2.1 0.37,-2.11 0.38,-2.12 0.38,-2.12 0.38,-2.13 0.37,-2.13 0.38,-2.13 0.38,-2.14 0.37,-2.14 0.38,-2.14 0.38,-2.15 0.37,-2.14 0.38,-2.15 0.38,-2.14 0.37,-2.14 0.38,-2.15 0.38,-2.14 0.37,-2.13 0.38,-2.14 0.38,-2.13 0.38,-2.13 0.37,-2.12 0.38,-2.11 0.38,-2.12 0.37,-2.1 0.38,-2.1 0.38,-2.09 0.37,-2.08 0.38,-2.07 0.38,-2.07 0.37,-2.05 0.38,-2.05 0.38,-2.03 0.37,-2.03 0.38,-2.01 0.38,-2 0.38,-1.98 0.37,-1.98 0.38,-1.96 0.38,-1.95 0.37,-1.93 0.38,-1.92 0.38,-1.9 0.37,-1.89 0.38,-1.87 0.38,-1.85 0.37,-1.84 0.38,-1.82 0.38,-1.8 0.37,-1.79 0.38,-1.76 0.38,-1.75 0.38,-1.72 0.37,-1.71 0.38,-1.69 0.38,-1.67 0.37,-1.64 0.38,-1.63 0.38,-1.6 0.37,-1.58 0.38,-1.56 0.38,-1.53 0.37,-1.52 0.38,-1.49 0.38,-1.46 0.37,-1.45 0.38,-1.42 0.38,-1.39 0.38,-1.37 0.37,-1.35 0.38,-1.32 0.38,-1.29 0.37,-1.27 0.38,-1.24 0.38,-1.22 0.37,-1.19 0.38,-1.16 0.38,-1.14 0.37,-1.11 0.38,-1.08 0.38,-1.06 0.37,-1.03 0.38,-1 0.38,-0.97 0.37,-0.94 0.38,-0.92 0.38,-0.89 0.38,-0.86 0.37,-0.83 0.38,-0.8 0.38,-0.77 0.37,-0.74 0.38,-0.72 0.38,-0.68 0.37,-0.66 0.38,-0.62 0.38,-0.6 0.37,-0.57 0.38,-0.53 0.38,-0.51 0.37,-0.48 0.38,-0.44 0.38,-0.42 0.38,-0.39 0.37,-0.35 0.38,-0.33 0.38,-0.29 0.37,-0.27 0.38,-0.23 0.38,-0.21 0.37,-0.17 0.38,-0.15 0.38,-0.11 0.37,-0.09 0.38,-0.05 0.38,-0.02 0.37,0.01 0.38,0.03 0.38,0.07 0.38,0.1 0.37,0.13 0.38,0.16 0.38,0.19 0.37,0.22 0.38,0.25 0.38,0.28 0.37,0.31 0.38,0.34 0.38,0.37 0.37,0.4 0.38,0.42 0.38,0.46 0.37,0.49 0.38,0.52 0.38,0.54 0.38,0.58 0.37,0.6 0.38,0.64 0.38,0.66 0.37,0.69 0.38,0.72 0.38,0.75 0.37,0.77 0.38,0.81 0.38,0.83 0.37,0.86 0.38,0.89 0.38,0.91 0.37,0.95 0.38,0.96 0.38,1 0.38,1.02 0.37,1.05 0.38,1.08 0.38,1.1 0.37,1.13 0.38,1.15 0.38,1.18 0.37,1.21 0.38,1.23 0.38,1.25 0.37,1.28 0.38,1.3 0.38,1.33 0.37,1.35 0.38,1.37 0.38,1.4 0.38,1.42 0.37,1.44 0.38,1.47 0.38,1.48 0.37,1.51 0.38,1.53 0.38,1.55 0.37,1.57 0.38,1.6 0.38,1.61 0.37,1.63 0.38,1.65 0.38,1.67 0.37,1.69 0.38,1.71 0.38,1.72 0.38,1.75 0.37,1.76 0.38,1.77 0.38,1.8 0.37,1.81 0.38,1.82 0.38,1.84 0.37,1.86 0.38,1.87 0.38,1.88 0.37,1.9 0.38,1.91 0.38,1.92 0.37,1.93 0.38,1.95 0.38,1.96 0.38,1.96 0.37,1.98 0.38,1.99 0.38,2 0.37,2 0.38,2.02 0.38,2.02 0.37,2.03 0.38,2.04 0.38,2.04 0.37,2.05 0.38,2.05 0.38,2.06 0.37,2.06 0.38,2.07 0.38,2.07 0.37,2.07 0.38,2.08 0.38,2.07 0.38,2.08 0.37,2.08 0.38,2.07 0.38,2.08 0.37,2.08 0.38,2.07 0.38,2.07 0.37,2.07 0.38,2.06 0.38,2.07 0.37,2.05 0.38,2.05 0.38,2.05 0.37,2.04 0.38,2.03 0.38,2.02 0.38,2.02 0.37,2.01 0.38,2 0.38,1.99 0.37,1.98 0.38,1.96 0.38,1.96 0.37,1.94 0.38,1.94 0.38,1.91 0.37,1.91 0.38,1.89 0.38,1.88 0.37,1.86 0.38,1.84 0.38,1.83 0.38,1.81 0.37,1.8 0.38,1.77 0.38,1.76 0.37,1.74 0.38,1.71 0.38,1.7 0.37,1.68 0.38,1.66 0.38,1.63 0.37,1.61 0.38,1.59 0.38,1.57 0.37,1.54 0.38,1.52 0.38,1.49 0.38,1.47 0.37,1.44 0.38,1.42 0.38,1.39 0.37,1.37 0.38,1.33 0.38,1.31 0.37,1.28 0.38,1.26 0.38,1.22 0.37,1.19 0.38,1.17 0.38,1.13 0.37,1.11 0.38,1.07 0.38,1.04 0.38,1.01 0.37,0.98 0.38,0.95 0.38,0.91 0.37,0.88 0.38,0.85 0.38,0.81 0.37,0.79 0.38,0.74 0.38,0.72 0.37,0.68 0.38,0.64 0.38,0.61 0.37,0.58 0.38,0.54 0.38,0.5 0.38,0.47 0.37,0.44 0.38,0.39 0.38,0.37 0.37,0.32 0.38,0.29 0.38,0.26 0.37,0.21 0.38,0.18 0.38,0.15 0.37,0.11 0.38,0.07 0.38,0.03 h 0.37 l 0.38,-0.04 0.38,-0.08 0.38,-0.11 0.37,-0.15 0.38,-0.18 0.38,-0.23 0.37,-0.25 0.38,-0.3 0.38,-0.33 0.37,-0.37 0.38,-0.4 0.38,-0.44 0.37,-0.48 0.38,-0.51 0.38,-0.55 0.37,-0.58 0.38,-0.62 0.38,-0.65 0.38,-0.69 0.37,-0.72 0.38,-0.75 0.38,-0.8 0.37,-0.82 0.38,-0.86 0.38,-0.89 0.37,-0.93 0.38,-0.95 0.38,-0.99 0.37,-1.03 0.38,-1.05 0.38,-1.09 0.37,-1.12 0.38,-1.14 0.38,-1.18 0.37,-1.21 0.38,-1.24 0.38,-1.27 0.38,-1.3 0.37,-1.33 0.38,-1.35 0.38,-1.39 0.37,-1.41 0.38,-1.43 0.38,-1.47 0.37,-1.49 0.38,-1.51 0.38,-1.54 0.37,-1.57 0.38,-1.59 0.38,-1.61 0.37,-1.64 0.38,-1.66 0.38,-1.68 0.38,-1.71 0.37,-1.72 0.38,-1.75 0.38,-1.76 0.37,-1.79 0.38,-1.81 0.38,-1.82 0.37,-1.84 0.38,-1.86 0.38,-1.88 0.37,-1.89 0.38,-1.91 0.38,-1.92 0.37,-1.94 0.38,-1.95 0.38,-1.97 0.38,-1.98 0.37,-1.99 0.38,-2 0.38,-2.01 0.37,-2.03 0.38,-2.03 0.38,-2.05 0.37,-2.05 0.38,-2.06 0.38,-2.07 0.37,-2.07 0.38,-2.09 0.38,-2.08 0.37,-2.1 0.38,-2.09 0.38,-2.1 0.38,-2.11 0.37,-2.1 0.38,-2.11 0.38,-2.11 0.37,-2.11 0.38,-2.11 0.38,-2.12 0.37,-2.11 0.38,-2.1 0.38,-2.11 0.37,-2.1 0.38,-2.1 0.38,-2.1 0.37,-2.09 0.38,-2.09 0.38,-2.08 0.38,-2.07 0.37,-2.07 0.38,-2.06 0.38,-2.05 0.37,-2.04 0.38,-2.03 0.38,-2.02 0.37,-2.02 0.38,-2 0.38,-1.99 0.37,-1.98 0.38,-1.96 0.38,-1.95 0.37,-1.94 0.38,-1.93 0.38,-1.91 0.38,-1.89 0.37,-1.88 0.38,-1.86 0.38,-1.84 0.37,-1.83 0.38,-1.81 0.38,-1.79 0.37,-1.77 0.38,-1.76 0.38,-1.73 0.37,-1.71 0.38,-1.69 0.38,-1.68 0.37,-1.64 0.38,-1.63 0.38,-1.61 0.38,-1.58 0.37,-1.55 0.38,-1.54 0.38,-1.51 0.37,-1.48 0.38,-1.46 0.38,-1.44 0.37,-1.41 0.38,-1.38 0.38,-1.36 0.37,-1.33 0.38,-1.3 0.38,-1.28 0.37,-1.24 0.38,-1.22 0.38,-1.19 0.38,-1.16 0.37,-1.14 0.38,-1.1 0.38,-1.07 0.37,-1.05 0.38,-1.01 0.38,-0.98 0.37,-0.95 0.38,-0.93 0.38,-0.88 0.37,-0.86 0.38,-0.83 0.38,-0.79 0.37,-0.77 0.38,-0.73 0.38,-0.69 0.37,-0.67 0.38,-0.63 0.38,-0.6 0.38,-0.57 0.37,-0.53 0.38,-0.5 0.38,-0.46 0.37,-0.43 0.38,-0.4 0.38,-0.37 0.37,-0.33 0.38,-0.29 0.38,-0.26 0.37,-0.23 0.38,-0.19 0.38,-0.16 0.37,-0.13 0.38,-0.08 0.38,-0.06 0.38,-0.02 0.37,0.01 0.38,0.05 0.38,0.09 0.37,0.11 0.38,0.16 0.38,0.18 0.37,0.22 0.38,0.26 0.38,0.29 0.37,0.32 0.38,0.36 0.38,0.39 0.37,0.43 0.38,0.46 0.38,0.5 0.38,0.52 0.37,0.57 0.38,0.59 0.38,0.63 0.37,0.66 0.38,0.7 0.38,0.72 0.37,0.76 0.38,0.8 0.38,0.82 0.37,0.86 0.38,0.89 0.38,0.92 0.37,0.95 0.38,0.99 0.38,1.01 0.38,1.05 0.37,1.07 0.38,1.11 0.38,1.13 0.37,1.17 0.38,1.19 0.38,1.23 0.37,1.25 0.38,1.28 0.38,1.31 0.37,1.34 0.38,1.36 0.38,1.39 0.37,1.42 0.38,1.44 0.38,1.47 0.38,1.5 0.37,1.51 0.38,1.55 0.38,1.57 0.37,1.59 0.38,1.62 0.38,1.63 0.37,1.67 0.38,1.68 0.38,1.7 0.37,1.73 0.38,1.74 0.38,1.77 0.37,1.78 0.38,1.81 0.38,1.82 0.38,1.84 0.37,1.86 0.38,1.88 0.38,1.89 0.37,1.9 0.38,1.93 0.38,1.93 0.37,1.95 0.38,1.97 0.38,1.98 0.37,1.99 0.38,2 0.38,2.01 0.37,2.02 0.38,2.03 0.38,2.04 0.38,2.06 0.37,2.05 0.38,2.07 0.38,2.07 0.37,2.08 0.38,2.08 0.38,2.09 0.37,2.09 0.38,2.1 0.38,2.09 0.37,2.1 0.38,2.11 0.38,2.1 0.37,2.1 0.38,2.1 0.38,2.1 0.38,2.1 0.37,2.09 0.38,2.09 0.38,2.09 0.37,2.08 0.38,2.08 0.38,2.07 0.37,2.06 0.38,2.06 0.38,2.05 0.37,2.03 0.38,2.03 0.38,2.02 0.37,2.01 0.38,2 0.38,1.98 0.37,1.97 0.38,1.96 0.38,1.94 0.38,1.93 0.37,1.91 0.38,1.9 0.38,1.88 0.37,1.86 0.38,1.84 0.38,1.83 0.37,1.8 0.38,1.79 0.38,1.77 0.37,1.74 0.38,1.72 0.38,1.7 0.37,1.68 0.38,1.66 0.38,1.63 0.38,1.6 0.37,1.58 0.38,1.56 0.38,1.53 0.37,1.5 0.38,1.48 0.38,1.45 0.37,1.42 0.38,1.4 0.38,1.36 0.37,1.34 0.38,1.3 0.38,1.28 0.37,1.25 0.38,1.21 0.38,1.19 0.38,1.15 0.37,1.12 0.38,1.09 0.38,1.06 0.37,1.03 0.38,0.99 0.38,0.96 0.37,0.93 0.38,0.89 0.38,0.86 0.37,0.83 0.38,0.79 0.38,0.76 0.37,0.72 0.38,0.69 0.38,0.66 0.38,0.62 0.37,0.59 0.38,0.55 0.38,0.52 0.37,0.48 0.38,0.45 0.38,0.41 0.37,0.38 0.38,0.34 0.38,0.31 0.37,0.28 0.38,0.24 0.38,0.21 0.37,0.17 0.38,0.14 0.38,0.1 0.38,0.07 0.37,0.04 0.38,0.01 0.38,-0.03 0.37,-0.06 0.38,-0.1 0.38,-0.12 0.37,-0.16 0.38,-0.19 0.38,-0.22 0.37,-0.25 0.38,-0.28 0.38,-0.32 0.37,-0.34 0.38,-0.37 0.38,-0.4 0.38,-0.43 0.37,-0.46 0.38,-0.48 0.38,-0.52 0.37,-0.54 0.38,-0.56 0.38,-0.59 0.37,-0.62 0.38,-0.64 0.38,-0.67 0.37,-0.69 0.38,-0.71 0.38,-0.74 0.37,-0.75 0.38,-0.78 0.38,-0.8 0.38,-0.83 0.37,-0.84 0.38,-0.86 0.38,-0.87 0.37,-0.9 0.38,-0.91 0.38,-0.93 0.37,-0.95 0.38,-0.96 0.38,-0.98 0.37,-0.99 0.38,-1 0.38,-1.02 0.37,-1.03 0.38,-1.04 0.38,-1.05 0.38,-1.06 0.37,-1.08 0.38,-1.08 0.38,-1.08 0.37,-1.1 0.38,-1.1 0.38,-1.11 0.37,-1.12 0.38,-1.12 0.38,-1.12 0.37,-1.13 0.38,-1.13 0.38,-1.14 0.37,-1.13 0.38,-1.14 0.38,-1.14 0.37,-1.13 0.38,-1.14 0.38,-1.14 0.38,-1.13 0.37,-1.13 0.38,-1.13 0.38,-1.13 0.37,-1.12 0.38,-1.11 0.38,-1.12 0.37,-1.1 0.38,-1.1 0.38,-1.1 0.37,-1.08 0.38,-1.08 0.38,-1.07 0.37,-1.06 0.38,-1.06 0.38,-1.04 0.38,-1.03 0.37,-1.03 0.38,-1.01 0.38,-1 0.37,-1 0.38,-0.97 0.38,-0.97 0.37,-0.96 0.38,-0.94 0.38,-0.93 0.37,-0.92 0.38,-0.9 0.38,-0.89 0.37,-0.87 0.38,-0.86 0.38,-0.85 0.38,-0.83 0.37,-0.82 0.38,-0.8 0.38,-0.79 0.37,-0.77 0.38,-0.76 0.38,-0.74 0.37,-0.73 0.38,-0.71 0.38,-0.69 0.37,-0.68 0.38,-0.66 0.38,-0.65 0.37,-0.63 0.38,-0.62 0.38,-0.6 0.38,-0.59 0.37,-0.57 0.38,-0.55 0.38,-0.54 0.37,-0.52 0.38,-0.51 0.38,-0.49 0.37,-0.48 0.38,-0.47 0.38,-0.44 0.37,-0.44 0.38,-0.42 0.38,-0.4 0.37,-0.39 0.38,-0.38 0.38,-0.37 0.38,-0.35 0.37,-0.33 0.38,-0.33 0.38,-0.31 0.37,-0.3 0.38,-0.28 0.38,-0.28 0.37,-0.26 0.38,-0.25 0.38,-0.24 0.37,-0.23 0.38,-0.22 0.38,-0.21 0.37,-0.2 0.38,-0.19 0.38,-0.18 0.38,-0.17 0.37,-0.16 0.38,-0.15 0.38,-0.14 0.37,-0.14 0.38,-0.13 0.38,-0.12 0.37,-0.11 0.38,-0.11 0.38,-0.1 0.37,-0.09 0.38,-0.09 0.38,-0.08 0.37,-0.07 0.38,-0.07 0.38,-0.07 0.38,-0.06 0.37,-0.05 0.38,-0.06 0.38,-0.04 0.37,-0.05 0.38,-0.04 0.38,-0.03 0.37,-0.04 0.38,-0.03 0.38,-0.02 0.37,-0.03 0.38,-0.02 0.38,-0.02 0.37,-0.02 0.38,-0.01 0.38,-0.02 h 0.18"
           id="path231" />
      </g>
    </g>
    <g
       id="gnuplot_plot_3">
      <title
         id="title236">sin4 filtered</title>
      <g
         fill="none"
         color="#000000"
         stroke="currentColor"
         stroke-width="5"
         stroke-linecap="butt"
         stroke-linejoin="miter"
         id="g248">
        <g
           transform="translate(953.43,171.51)"
           stroke="none"
           fill="#000000"
           font-family="Arial"
           font-size="20px"
           text-anchor="end"
           id="g246">
          <text
             id="text244"><tspan
               font-family="Arial"
               id="tspan238">sin</tspan><tspan
               font-family="Arial"
               font-size="16px"
               dy="-10"
               id="tspan240">4</tspan><tspan
               font-family="Arial"
               font-size="20px"
               dy="10"
               id="tspan242">filtered</tspan></text>
        </g>
      </g>
      <g
         fill="none"
         color="#000000"
         stroke="currentColor"
         stroke-width="5"
         stroke-linecap="butt"
         stroke-linejoin="miter"
         id="g252">
        <path
           stroke="#7d03a8"
           stroke-dasharray="5, 10"
           d="m 967.43,165.01 h 65 M 120,417.27 l 0.38,3.09 0.37,2.94 0.38,2.78 0.38,2.63 0.37,2.45 0.38,2.3 0.38,2.12 0.37,1.96 0.38,1.78 0.38,1.61 0.38,1.45 0.37,1.27 0.38,1.1 0.38,0.94 0.37,0.77 0.38,0.62 0.38,0.45 0.37,0.3 0.38,0.14 h 0.38 l 0.37,-0.14 0.38,-0.29 0.38,-0.42 0.37,-0.54 0.38,-0.68 0.38,-0.79 0.38,-0.9 0.37,-1.02 0.38,-1.12 0.38,-1.22 0.37,-1.31 0.38,-1.4 0.38,-1.48 0.37,-1.56 0.38,-1.63 0.38,-1.7 0.37,-1.76 0.38,-1.82 0.38,-1.87 0.37,-1.92 0.38,-1.96 0.38,-2.01 0.38,-2.03 0.37,-2.07 0.38,-2.09 0.38,-2.12 0.37,-2.13 0.38,-2.15 0.38,-2.16 0.37,-2.17 0.38,-2.18 0.38,-2.17 0.37,-2.18 0.38,-2.17 0.38,-2.17 0.37,-2.16 0.38,-2.14 0.38,-2.14 0.38,-2.12 0.37,-2.1 0.38,-2.08 0.38,-2.07 0.37,-2.04 0.38,-2.02 0.38,-1.99 0.37,-1.98 0.38,-1.94 0.38,-1.92 0.37,-1.89 0.38,-1.86 0.38,-1.84 0.37,-1.8 0.38,-1.78 0.38,-1.74 0.38,-1.72 0.37,-1.69 0.38,-1.65 0.38,-1.63 0.37,-1.6 0.38,-1.57 0.38,-1.54 0.37,-1.51 0.38,-1.48 0.38,-1.46 0.37,-1.42 0.38,-1.4 0.38,-1.38 0.37,-1.34 0.38,-1.33 0.38,-1.29 0.38,-1.28 0.37,-1.24 0.38,-1.23 0.38,-1.2 0.37,-1.19 0.38,-1.16 0.38,-1.13 0.37,-1.12 0.38,-1.1 0.38,-1.09 0.37,-1.06 0.38,-1.05 0.38,-1.03 0.37,-2.35 0.38,-2.33 0.38,-2.3 0.38,-2.28 0.37,-2.25 0.38,-2.22 0.38,-2.18 0.37,-2.15 0.38,-2.11 0.38,-2.07 0.37,-2.03 0.38,-1.99 0.38,-1.94 0.37,-1.9 0.38,-1.86 0.38,-1.8 0.37,-1.76 0.38,-1.71 0.38,-1.67 0.38,-1.61 0.37,-1.57 0.38,-1.52 0.38,-1.47 0.37,-1.42 0.38,-1.38 0.38,-1.33 0.37,-1.29 0.38,-1.24 0.38,-1.2 0.37,-1.15 0.38,-1.12 0.38,-1.08 0.37,-1.03 0.38,-1.01 0.38,-0.97 0.37,-0.94 0.38,-0.9 0.38,-0.88 0.38,-0.85 0.37,-0.82 0.38,-0.8 0.38,-0.78 0.37,-0.76 0.38,-0.73 0.38,-0.72 0.37,-0.71 0.38,-0.69 0.38,-0.68 0.37,-0.66 0.38,-0.66 0.38,-0.64 0.37,-0.64 0.38,-0.63 0.38,-0.62 0.38,-0.62 0.37,-0.61 0.38,-0.61 0.38,-0.6 0.37,-0.6 0.38,-0.59 0.38,-0.59 0.37,-0.59 0.38,-0.58 0.38,-0.58 0.37,-0.58 0.38,-0.57 0.38,-0.57 0.37,-0.56 0.38,-0.55 0.38,-0.55 0.38,-0.55 0.37,-0.53 0.38,-0.53 0.38,-0.51 0.37,-0.51 0.38,-0.5 0.38,-0.49 0.37,-0.47 0.38,-0.46 0.38,-0.45 0.37,-0.43 0.38,-0.42 0.38,-0.41 0.37,-0.38 0.38,-0.37 0.38,-0.36 0.38,-0.33 0.37,-0.32 0.38,-0.29 0.38,-0.28 0.37,-0.26 0.38,-0.23 0.38,-0.22 0.37,-0.19 0.38,-0.17 0.38,-0.15 0.37,-0.12 0.38,-0.11 0.38,-0.07 0.37,-0.06 0.38,-0.03 h 0.38 l 0.38,0.01 0.37,0.05 0.38,0.07 0.38,0.09 0.37,0.12 0.38,0.15 0.38,0.17 0.37,0.2 0.38,0.23 0.38,0.26 0.37,0.28 0.38,0.31 0.38,0.34 0.37,0.37 0.38,0.4 0.38,0.42 0.38,0.46 0.37,0.49 0.38,0.52 0.38,0.55 0.37,0.58 0.38,0.61 0.38,0.65 0.37,0.68 0.38,0.71 0.38,0.74 0.37,0.78 0.38,0.82 0.38,0.84 0.37,0.89 0.38,0.92 0.38,0.95 0.38,0.99 0.37,1.02 0.38,1.07 0.38,1.09 0.37,1.14 0.38,1.17 0.38,1.2 0.37,1.25 0.38,1.27 0.38,1.32 0.37,1.35 0.38,1.39 0.38,1.42 0.37,1.45 0.38,1.49 0.38,1.53 0.38,1.56 0.37,1.59 0.38,1.62 0.38,1.66 0.37,1.68 0.38,1.72 0.38,1.74 0.37,1.77 0.38,1.8 0.38,1.82 0.37,1.85 0.38,1.88 0.38,1.89 0.37,1.92 0.38,1.93 0.38,1.96 0.37,1.97 0.38,1.99 0.38,2 0.38,2.01 0.37,2.03 0.38,2.04 0.38,2.04 0.37,2.05 0.38,2.06 0.38,2.06 0.37,2.07 0.38,2.07 0.38,2.06 0.37,2.07 0.38,2.06 0.38,2.06 0.37,2.06 0.38,2.05 0.38,2.04 0.38,2.03 0.37,2.03 0.38,2.01 0.38,2.01 0.37,1.99 0.38,1.98 0.38,1.96 0.37,1.96 0.38,1.94 0.38,1.92 0.37,1.91 0.38,1.9 0.38,1.87 0.37,1.87 0.38,1.85 0.38,1.83 0.38,1.82 0.37,1.8 0.38,1.79 0.38,1.77 0.37,1.76 0.38,1.75 0.38,1.73 0.37,1.72 0.38,1.71 0.38,1.7 0.37,1.69 0.38,1.67 0.38,1.67 0.37,1.66 0.38,1.65 0.38,1.64 0.38,1.64 0.37,1.63 0.38,1.63 0.38,1.62 0.37,1.62 0.38,1.61 0.38,1.61 0.37,1.61 0.38,1.61 0.38,1.6 0.37,1.61 0.38,1.6 0.38,1.6 0.37,1.59 0.38,1.6 0.38,1.59 0.38,1.59 0.37,1.59 0.38,1.58 0.38,1.58 0.37,1.58 0.38,1.56 0.38,1.57 0.37,1.55 0.38,1.54 0.38,1.54 0.37,1.52 0.38,1.51 0.38,1.5 0.37,1.48 0.38,1.47 0.38,1.45 0.38,1.42 0.37,1.41 0.38,1.38 0.38,1.36 0.37,1.33 0.38,1.3 0.38,1.28 0.37,1.24 0.38,1.21 0.38,1.18 0.37,1.14 0.38,1.1 0.38,1.06 0.37,1.03 0.38,0.98 0.38,0.94 0.38,0.9 0.37,0.85 0.38,0.8 0.38,0.76 0.37,0.72 0.38,0.66 0.38,0.62 0.37,0.56 0.38,0.52 0.38,0.47 0.37,0.42 0.38,0.38 0.38,0.32 0.37,0.27 0.38,0.23 0.38,0.18 0.38,0.13 0.37,0.08 0.38,0.04 h 0.38 l 0.37,-0.05 0.38,-0.1 0.38,-0.13 0.37,-0.17 0.38,-0.22 0.38,-0.25 0.37,-0.28 0.38,-0.33 0.38,-0.35 0.37,-0.39 0.38,-0.42 0.38,-0.45 0.37,-0.48 0.38,-0.51 0.38,-0.53 0.38,-0.55 0.37,-0.59 0.38,-0.6 0.38,-0.62 0.37,-0.65 0.38,-0.67 0.38,-0.68 0.37,-0.71 0.38,-0.72 0.38,-0.74 0.37,-0.75 0.38,-0.77 0.38,-0.79 0.37,-0.8 0.38,-0.82 0.38,-0.84 0.38,-0.85 0.37,-0.87 0.38,-0.88 0.38,-0.9 0.37,-0.92 0.38,-0.94 0.38,-0.95 0.37,-0.97 0.38,-0.99 0.38,-1.01 0.37,-1.04 0.38,-1.05 0.38,-1.07 0.37,-1.1 0.38,-1.12 0.38,-1.14 0.38,-1.17 0.37,-1.2 0.38,-1.22 0.38,-1.24 0.37,-1.28 0.38,-1.3 0.38,-1.33 0.37,-1.37 0.38,-1.39 0.38,-1.42 0.37,-1.45 0.38,-1.48 0.38,-1.51 0.37,-1.55 0.38,-1.57 0.38,-1.61 0.38,-1.63 0.37,-1.67 0.38,-1.69 0.38,-1.73 0.37,-1.75 0.38,-1.78 0.38,-1.81 0.37,-1.84 0.38,-1.86 0.38,-1.88 0.37,-1.91 0.38,-1.94 0.38,-1.95 0.37,-1.97 0.38,-1.99 0.38,-2.01 0.38,-2.02 0.37,-2.04 0.38,-2.05 0.38,-2.06 0.37,-2.06 0.38,-2.08 0.38,-2.08 0.37,-2.08 0.38,-2.09 0.38,-2.08 0.37,-2.08 0.38,-2.08 0.38,-2.07 0.37,-2.07 0.38,-2.05 0.38,-2.04 0.38,-2.03 0.37,-2.02 0.38,-2 0.38,-1.98 0.37,-1.96 0.38,-1.94 0.38,-1.92 0.37,-1.89 0.38,-1.87 0.38,-1.84 0.37,-1.82 0.38,-1.78 0.38,-1.76 0.37,-1.72 0.38,-1.7 0.38,-1.66 0.38,-1.62 v -1.6 -1.56 l 1.88,-1.53 v -1.49 -1.46 -1.42 -1.39 l 1.88,-1.35 v -1.32 -1.29 -1.25 -1.22 l 1.89,-1.18 v -1.16 -1.12 -1.1 -1.06 l 1.88,-1.04 v -1.01 -0.98 -0.95 -0.94 l 1.89,-0.91 v -0.88 -0.87 -0.85 -0.83 l 1.88,-0.81 v -0.79 -0.79 -0.76 -0.76 l 1.89,-0.74 v -0.74 -0.72 -0.72 -0.71 l 1.88,-0.7 v -0.7 -0.69 -0.7 -0.68 l 1.88,-0.69 v -0.69 -0.68 -0.68 -0.69 l 1.89,-0.68 v -0.69 -0.69 -0.69 -0.69 l 1.88,-0.69 v -0.69 -0.69 -0.7 -0.7 l 1.89,-0.69 v -0.7 -0.7 -0.69 -0.7 l 1.88,-0.69 v -0.7 -0.69 -0.68 -0.68 l 1.89,-0.68 v -0.67 -0.67 -0.65 -0.65 l 1.88,-0.64 v -0.63 -0.62 -0.6 -0.59 l 1.88,-0.58 v -0.56 -0.54 -0.53 -0.51 l 1.89,-0.49 v -0.46 -0.45 -0.42 -0.4 l 1.88,-0.37 v -0.35 -0.31 -0.29 -0.26 l 1.89,-0.23 v -0.19 -0.16 -0.13 -0.1 l 1.88,-0.05 v -0.02 0.02 0.06 0.1 l 1.89,0.14 v 0.18 0.23 0.26 0.32 l 1.88,0.36 v 0.4 0.46 0.5 0.55 l 1.89,0.59 v 0.65 0.69 0.75 0.79 l 1.88,0.85 v 0.89 0.95 0.99 1.04 l 1.88,1.1 v 1.14 1.19 1.24 1.28 l 1.89,1.33 v 1.38 1.42 1.46 1.51 l 1.88,1.54 v 1.59 1.62 1.66 1.7 l 1.89,1.72 v 1.76 1.79 1.81 1.85 l 1.88,1.86 v 1.89 1.9 1.92 1.94 l 1.89,1.95 v 1.97 1.97 1.98 1.99 l 1.88,1.99 v 2 1.99 1.99 1.99 l 1.88,1.99 v 1.98 1.97 1.97 1.95 l 1.89,1.95 v 1.93 1.92 1.91 1.9 l 1.88,1.88 v 1.87 1.85 1.84 1.83 l 1.89,1.81 v 1.8 1.78 1.77 1.76 l 1.88,1.75 v 1.73 1.73 1.71 1.71 l 1.89,1.7 v 1.7 1.68 1.69 1.68 l 1.88,1.68 v 1.67 1.68 1.68 1.68 l 1.88,1.68 v 1.69 1.69 1.69 1.71 l 1.89,1.7 v 1.72 1.72 1.73 1.74 l 1.88,1.75 v 1.75 1.77 1.77 1.78 l 1.89,1.78 v 1.8 1.79 1.81 1.81 l 1.88,1.81 v 1.82 1.82 1.82 1.82 l 1.89,1.82 v 1.81 1.81 1.81 1.8 l 1.88,1.79 v 1.77 1.77 1.75 1.74 l 1.89,1.71 v 1.7 1.68 1.66 1.63 l 1.88,1.61 v 1.58 1.55 1.52 1.48 l 1.88,1.46 v 1.41 1.39 1.34 1.31 l 1.89,1.26 v 1.22 1.19 1.14 1.09 l 1.88,1.05 v 1.01 0.96 0.91 0.87 l 1.89,0.82 v 0.78 0.73 0.68 0.63 l 1.88,0.59 v 0.54 0.5 0.45 0.4 l 1.89,0.36 v 0.32 0.27 0.23 0.19 l 1.88,0.14 v 0.11 0.06 0.03 -0.01 l 1.88,-0.05 v -0.09 -0.12 -0.16 -0.19 l 1.89,-0.23 v -0.26 -0.29 -0.33 -0.35 l 1.88,-0.39 v -0.41 -0.45 -0.48 -0.5 l 1.89,-0.53 v -0.57 -0.59 -0.61 -0.65 l 1.88,-0.67 v -0.71 -0.73 -0.75 -0.79 l 1.89,-0.81 v -0.85 -0.87 -0.9 -0.93 l 1.88,-0.96 v -0.99 -1.01 -1.05 -1.09 l 1.88,-1.11 v -1.14 -1.18 -1.21 -1.25 l 1.89,-1.27 v -1.31 -1.35 -1.38 -1.41 l 1.88,-1.45 v -1.49 -1.52 -1.55 -1.59 l 1.89,-1.62 v -1.66 -1.69 -1.73 -1.76 l 1.88,-1.79 v -1.82 -1.86 -1.88 -1.91 l 1.89,-1.94 v -1.97 -1.99 -2.02 -2.03 l 1.88,-2.06 v -2.08 -2.09 -2.11 -2.13 l 1.89,-2.13 v -2.15 -2.15 -2.16 -2.16 l 1.88,-2.17 v -2.16 -2.17 -2.15 -2.15 l 1.88,-2.15 v -2.13 -2.12 -2.1 -2.09 l 1.89,-2.08 v -2.05 -2.03 -2.01 -1.99 l 1.88,-1.97 v -1.93 -1.92 -1.88 -1.86 l 1.89,-1.83 v -1.8 -1.77 -1.75 -1.71 l 1.88,-1.69 v -1.66 -1.63 -1.6 -1.57 l 1.89,-1.55 v -1.53 -1.5 -1.48 -1.46 l 1.88,-1.43 v -1.42 -1.4 -1.38 -1.37 l 1.88,-1.35 v -1.35 -1.33 -1.32 -1.32 l 1.89,-1.31 v -1.31 -1.31 -1.3 -1.3 l 1.88,-1.31 v -1.3 -1.31 -1.32 -1.32 l 1.89,-1.33 v -1.33 -1.34 -1.35 -1.36 l 1.88,-1.37 v -1.37 -1.39 -1.39 -1.4 l 1.89,-1.41 v -1.41 -1.42 -1.43 -1.43 l 1.88,-1.44 v -1.44 -1.44 -1.45 -1.44 l 1.88,-1.44 v -1.43 -1.44 -1.42 -1.42 l 1.89,-1.4 v -1.4 -1.38 -1.36 -1.35 l 1.88,-1.33 v -1.31 -1.28 -1.26 -1.24 l 1.89,-1.21 v -1.18 -1.14 -1.12 -1.08 l 1.88,-1.05 v -1.01 -0.97 -0.93 -0.89 l 1.89,-0.85 v -0.8 -0.77 -0.72 -0.67 l 1.88,-0.63 v -0.58 -0.53 -0.49 -0.44 l 1.89,-0.39 v -0.34 -0.29 -0.25 -0.2 l 1.88,-0.15 v -0.11 -0.05 -0.01 0.03 l 1.88,0.08 v 0.13 0.17 0.21 0.26 l 1.89,0.3 v 0.34 0.38 0.42 0.46 l 1.88,0.49 v 0.53 0.57 0.6 0.64 l 1.89,0.66 v 0.7 0.73 0.76 0.78 l 1.88,0.82 v 0.84 0.86 0.89 0.91 l 1.89,0.93 v 0.96 0.97 1 1.01 l 1.88,1.03 v 1.04 1.07 1.07 1.1 l 1.88,1.1 v 1.12 1.13 1.14 1.15 l 1.89,1.17 v 1.17 1.18 1.19 1.2 l 1.88,1.21 v 1.21 1.22 1.23 1.23 l 1.89,1.24 v 1.24 1.25 1.25 1.26 l 1.88,1.27 v 1.27 1.27 1.28 1.28 l 1.89,1.29 v 1.29 1.3 1.3 1.31 l 1.88,1.31 v 1.32 1.33 1.33 1.33 l 1.89,1.35 v 1.35 1.36 1.36 1.38 l 1.88,1.38 v 1.39 1.41 1.41 1.42 l 1.88,1.43 v 1.45 1.45 1.47 1.48 l 1.89,1.5 v 1.5 1.53 1.53 1.55 l 1.88,1.57 v 1.58 1.59 1.62 1.62 l 1.89,1.65 v 1.66 1.67 1.69 1.71 l 1.88,1.73 v 1.74 1.76 1.77 1.79 l 1.89,1.81 v 1.81 1.84 1.85 1.86 l 1.88,1.87 v 1.89 1.9 1.91 1.92 l 1.88,1.93 v 1.94 1.94 1.95 1.96 l 1.89,1.96 v 1.96 1.96 1.96 1.97 l 1.88,1.96 v 1.95 1.95 1.95 1.93 l 1.89,1.93 v 1.91 1.91 1.88 1.88 l 1.88,1.85 v 1.84 1.82 1.79 1.78 l 1.89,1.75 v 1.73 1.7 1.67 1.64 l 1.88,1.62 v 1.58 1.56 1.52 1.49 l 1.88,1.45 v 1.42 1.39 1.35 1.32 l 1.89,1.28 v 1.24 1.21 1.17 1.13 l 1.88,1.09 v 1.06 1.03 0.98 0.95 l 1.89,0.92 v 0.87 0.85 0.8 0.77 l 1.88,0.74 v 0.71 0.67 0.63 0.61 l 1.89,0.57 v 0.54 0.51 0.48 0.44 l 1.88,0.42 v 0.39 0.36 0.33 0.3 l 1.89,0.28 v 0.24 0.22 0.19 0.16 l 1.88,0.14 v 0.1 0.09 0.05 0.02 h 1.88 v -0.03 -0.05 -0.09 -0.11 l 1.89,-0.15 v -0.17 -0.2 -0.23 -0.26 l 1.88,-0.29 v -0.32 -0.35 -0.39 -0.42 l 1.89,-0.45 v -0.48 -0.52 -0.55 -0.59 l 1.88,-0.62 v -0.65 -0.7 -0.72 -0.77 l 1.89,-0.8 v -0.84 -0.87 -0.92 -0.94 l 1.88,-0.99 v -1.02 -1.06 -1.1 -1.13 l 1.88,-1.17 v -1.2 -1.24 -1.27 -1.3 l 1.89,-1.34 v -1.37 -1.4 -1.43 -1.46 l 1.88,-1.49 v -1.52 -1.54 -1.57 -1.59 l 1.89,-1.62 v -1.63 -1.66 -1.68 -1.69 l 1.88,-1.71 v -1.73 -1.74 -1.76 -1.76 l 1.89,-1.78 v -1.79 -1.79 -1.8 -1.81 l 1.88,-1.81 v -1.81 -1.82 -1.82 -1.82 l 1.88,-1.82 v -1.81 -1.82 -1.81 -1.81 l 1.89,-1.81 v -1.8 -1.8 -1.79 -1.79 l 1.88,-1.78 v -1.77 -1.77 -1.76 -1.76 l 1.89,-1.75 v -1.75 -1.73 -1.74 -1.73 l 1.88,-1.72 v -1.72 -1.71 -1.71 -1.71 l 1.89,-1.71 v -1.7 -1.7 -1.7 -1.7 l 1.88,-1.7 v -1.7 -1.7 -1.7 -1.7 l 1.89,-1.7 v -1.71 -1.71 -1.71 -1.71 l 1.88,-1.72 v -1.72 -1.72 -1.73 -1.73 l 1.88,-1.73 v -1.74 -1.73 -1.74 -1.75 l 1.89,-1.74 v -1.74 -1.75 -1.74 -1.75 l 1.88,-1.74 v -1.73 -1.74 -1.73 -1.72 l 1.89,-1.72 v -1.71 -1.7 -1.68 -1.68 l 1.88,-1.66 v -1.65 -1.64 -1.61 -1.6 l 1.89,-1.58 v -1.55 -1.54 -1.51 -1.48 l 1.88,-1.46 v -1.43 -1.4 -1.37 -1.34 l 1.88,-1.31 v -1.27 -1.24 -1.21 -1.16 l 1.89,-1.14 v -1.09 -1.06 -1.01 -0.98 l 1.88,-0.94 v -0.9 -0.86 -0.82 -0.79 l 1.89,-0.74 v -0.7 -0.67 -0.62 -0.59 l 1.88,-0.55 v -0.51 -0.48 -0.44 -0.4 l 1.89,-0.37 v -0.33 -0.3 -0.26 -0.24 l 1.88,-0.2 v -0.17 -0.14 -0.11 -0.08 l 1.88,-0.05 v -0.03 0.01 0.02 0.06 l 1.89,0.08 v 0.1 0.13 0.16 0.17 l 1.88,0.2 v 0.22 0.25 0.27 0.29 l 1.89,0.31 v 0.33 0.35 0.38 0.39 l 1.88,0.42 v 0.44 0.46 0.47 0.5 l 1.89,0.52 v 0.55 0.56 0.58 0.6 l 1.88,0.63 v 0.64 0.67 0.69 0.71 l 1.89,0.72 v 0.75 0.77 0.8 0.81 l 1.88,0.83 v 0.85 0.87 0.9 0.91 l 1.88,0.93 v 0.96 0.97 0.99 1.01 l 1.89,1.03 v 1.05 1.06 1.08 1.1 l 1.88,1.12 v 1.14 1.15 1.16 1.19 l 1.89,1.2 v 1.21 1.23 1.25 1.26 l 1.88,1.27 v 1.29 1.3 1.32 1.33 l 1.89,1.35 v 1.36 1.37 1.39 1.41 l 1.88,1.41 v 1.44 1.44 1.46 1.48 l 1.88,1.49 v 1.51 1.52 1.54 1.56 l 1.89,1.57 v 1.59 1.6 1.62 1.64 l 1.88,1.66 v 1.67 1.69 1.71 1.73 l 1.89,1.74 v 1.76 1.78 1.8 1.81 l 1.88,1.83 v 1.85 1.86 1.88 1.9 l 1.89,1.91 v 1.92 1.94 1.95 1.97 l 1.88,1.97 v 1.99 1.99 2.01 2.01 l 1.88,2.02 v 2.03 2.03 2.04 2.03 l 1.89,2.04 v 2.04 2.04 2.03 2.03 l 1.88,2.02 v 2.02 2.01 2 1.99 l 1.89,1.98 v 1.96 1.95 1.93 1.92 l 1.88,1.9 v 1.88 1.86 1.84 1.82 l 1.89,1.79 v 1.77 1.74 1.72 1.69 l 1.88,1.67 v 1.64 1.61 1.58 1.55 l 1.89,1.52 v 1.49 1.46 1.43 1.41 l 1.88,1.37 v 1.33 1.31 1.28 1.24 l 1.88,1.22 v 1.18 1.15 1.12 1.09 l 1.89,1.06 v 1.02 1 0.97 0.93 l 1.88,0.91 v 0.87 0.85 0.81 0.79 l 1.89,0.76 v 0.72 0.7 0.67 0.64 l 1.88,0.61 v 0.59 0.55 0.53 0.5 l 1.89,0.47 v 0.44 0.41 0.39 0.35 l 1.88,0.33 v 0.3 0.27 0.24 0.21 l 1.88,0.18 v 0.15 0.12 0.09 0.06 l 1.89,0.03 v -0.04 -0.07 -0.1 l 1.88,-0.13 v -0.17 -0.21 -0.24 -0.27 l 1.89,-0.31 v -0.35 -0.38 -0.43 -0.46 l 1.88,-0.49 v -0.54 -0.58 -0.61 -0.66 l 1.89,-0.69 v -0.73 -0.78 -0.81 -0.85 l 1.88,-0.9 v -0.93 -0.97 -1.01 -1.05 l 1.88,-1.09 v -1.12 -1.17 -1.2 -1.23 l 1.89,-1.28 v -1.3 -1.34 -1.38 -1.4 l 1.88,-1.44 v -1.46 -1.5 -1.52 -1.54 l 1.89,-1.58 v -1.6 -1.62 -1.64 -1.66 l 1.88,-1.68 v -1.7 -1.71 -1.73 -1.75 l 1.89,-1.75 v -1.77 -1.78 -1.78 -1.8 l 1.88,-1.8 v -1.81 -1.81 -1.82 -1.82 l 1.89,-1.82 v -1.82 -1.83 -1.83 -1.82 l 1.88,-1.83 v -1.83 -1.82 -1.82 -1.83 l 1.88,-1.82 v -1.82 -1.82 -1.82 -1.81 l 1.89,-1.82 v -1.82 -1.81 -1.82 -1.81 l 1.88,-1.82 v -1.82 -1.82 -1.82 -1.83 l 1.89,-1.83 v -1.83 -1.84 -1.84 -1.84 l 1.88,-1.85 v -1.86 -1.86 -1.86 -1.87 l 1.89,-1.88 v -1.88 -1.89 -1.9 -1.89 l 1.88,-1.91 v -1.91 -1.91 -1.91 -1.92 l 1.88,-1.92 v -1.92 -1.92 -1.92 -1.92 l 1.89,-1.92 v -1.91 -1.91 -1.9 -1.89 l 1.88,-1.88 v -1.87 -1.86 -1.85 -1.83 l 1.89,-1.81 v -1.8 -1.78 -1.76 -1.73 l 1.88,-1.71 v -1.69 -1.66 -1.63 -1.6 l 1.89,-1.57 v -1.55 -1.5 -1.48 -1.44 l 1.88,-1.41 v -1.37 -1.34 -1.29 -1.26 l 1.89,-1.23 v -1.18 -1.15 -1.11 -1.06 l 1.88,-1.03 v -1 -0.95 -0.91 -0.88 l 1.88,-0.84 v -0.8 -0.77 -0.73 -0.69 l 1.89,-0.66 v -0.63 -0.59 -0.56 -0.53 l 1.88,-0.49 v -0.47 -0.43 -0.41 -0.38 l 1.89,-0.35 v -0.33 -0.3 -0.27 -0.25 l 1.88,-0.23 v -0.21 -0.18 -0.16 -0.15 l 1.89,-0.12 v -0.1 -0.08 -0.07 -0.05 l 1.88,-0.03 v -0.01 0.02 0.04 l 1.88,0.05 v 0.06 0.09 0.09 0.11 l 1.89,0.13 v 0.14 0.15 0.17 0.18 l 1.88,0.19 v 0.21 0.23 0.23 0.25 l 1.89,0.27 v 0.28 0.29 0.31 0.32 l 1.88,0.34 v 0.35 0.36 0.38 0.4 l 1.89,0.41 v 0.42 0.44 0.46 0.46 l 1.88,0.49 v 0.5 0.52 0.53 0.55 l 1.88,0.56 v 0.58 0.6 0.61 0.63 l 1.89,0.64 v 0.67 0.68 0.7 0.71 l 1.88,0.73 v 0.76 0.77 0.79 0.81 l 1.89,0.82 v 0.85 0.87 0.89 0.91 l 1.88,0.93 v 0.95 0.97 1 1.01 l 1.89,1.05 v 1.06 1.09 1.12 1.13 l 1.88,1.17 v 1.19 1.21 1.24 1.27 l 1.89,1.3 v 1.32 1.35 1.38 1.4 l 1.88,1.44 v 1.46 1.49 1.52 1.54 l 1.88,1.58 v 1.6 1.63 1.66 1.69 l 1.89,1.71 v 1.74 1.77 1.79 1.81 l 1.88,1.84 v 1.87 1.88 1.91 1.93 l 1.89,1.95 v 1.97 1.99 2 2.02 l 1.88,2.03 v 2.05 2.06 2.07 2.08 l 1.89,2.09 v 2.1 2.1 2.1 2.11 l 1.88,2.11 v 2.11 2.11 2.1 2.11 l 1.88,2.09 v 2.09 2.08 2.08 2.06 l 1.89,2.05 v 2.04 2.03 2.01 2 l 1.88,1.98 v 1.96 1.95 1.92 1.91 l 1.89,1.88 v 1.87 1.84 1.82 1.8 l 1.88,1.78 v 1.75 1.73 1.71 1.68 l 1.89,1.65 v 1.64 1.6 1.59 1.56 l 1.88,1.53 v 1.52 1.48 1.47 1.43 l 1.88,1.42 v 1.39 1.37 1.35 1.32 l 1.89,1.3 v 1.27 1.26 1.23 1.21 l 1.88,1.19 v 1.16 1.14 1.13 1.1 l 1.89,1.07 v 1.06 1.03 1.01 0.98 l 1.88,0.97 v 0.94 0.91 0.9 0.86 l 1.89,0.85 v 0.81 0.79 0.77 0.73 l 1.88,0.71 v 0.68 0.65 0.61 0.59 l 1.89,0.56 v 0.52 0.49 0.45 0.42 l 1.88,0.39 v 0.35 0.31 0.27 0.24 l 1.88,0.19 v 0.16 0.12 0.08 0.03 h 1.89 v -0.05 -0.09 -0.13 -0.17 l 1.88,-0.22 v -0.25 -0.3 -0.34 -0.39 l 1.89,-0.42 v -0.47 -0.5 -0.55 -0.58 l 1.88,-0.63 v -0.66 -0.7 -0.74 -0.78 l 1.89,-0.81 v -0.84 -0.88 -0.91 -0.95 l 1.88,-0.97 v -1 -1.04 -1.06 -1.09 l 1.88,-1.11 v -1.14 -1.16 -1.19 -1.21 l 1.89,-1.22 v -1.25 -1.27 -1.28 -1.3 l 1.88,-1.32 v -1.33 -1.35 -1.36 -1.37 l 1.89,-1.39 v -1.4 -1.4 -1.42 -1.43 l 1.88,-1.44 v -1.45 -1.46 -1.47 -1.48 l 1.89,-1.48 v -1.5 -1.5 -1.52 -1.52 l 1.88,-1.53 v -1.55 -1.55 -1.56 -1.57 l 1.88,-1.59 v -1.59 -1.61 -1.61 -1.63 l 1.89,-1.64 v -1.66 -1.66 -1.68 -1.7 l 1.88,-1.7 v -1.72 -1.74 -1.75 -1.76 l 1.89,-1.78 v -1.79 -1.81 -1.82 -1.84 l 1.88,-1.85 v -1.87 -1.88 -1.89 -1.9 l 1.89,-1.92 v -1.93 -1.94 -1.95 -1.97 l 1.88,-1.97 v -1.98 -1.98 -2 -2 l 1.89,-2 v -2.01 -2.01 -2.01 -2.01 l 1.88,-2 v -2.01 -2 -2 -1.98 l 1.88,-1.99 v -1.97 -1.96 -1.94 -1.94 l 1.89,-1.91 v -1.91 -1.88 -1.86 -1.84 l 1.88,-1.82 v -1.8 -1.77 -1.75 -1.72 l 1.89,-1.69 v -1.66 -1.63 -1.6 -1.57 l 1.88,-1.53 v -1.5 -1.47 -1.43 -1.39 l 1.89,-1.35 v -1.32 -1.28 -1.24 -1.2 l 1.88,-1.16 v -1.13 -1.08 -1.04 -1 l 1.88,-0.96 v -0.92 -0.89 -0.84 -0.8 l 1.89,-0.76 v -0.72 -0.69 -0.64 -0.61 l 1.88,-0.57 v -0.53 -0.5 -0.46 -0.42 l 1.89,-0.39 v -0.36 -0.32 -0.29 -0.26 l 1.88,-0.23 v -0.2 -0.17 -0.14 -0.11 l 1.89,-0.09 v -0.05 -0.04 -0.01 0.02 l 1.88,0.03 v 0.06 0.08 0.1 0.12 l 1.88,0.14 v 0.15 0.17 0.19 0.21 l 1.89,0.22 v 0.23 0.25 0.26 0.28 l 1.88,0.28 v 0.3 0.31 0.32 0.33 l 1.89,0.34 v 0.34 0.36 0.36 0.38 l 1.88,0.38 v 0.39 0.39 0.41 0.41 l 1.89,0.41 v 0.43 0.43 0.44 0.45 l 1.88,0.46 v 0.46 0.47 0.48 0.49 l 1.89,0.5 v 0.51 0.52 0.54 0.54 l 1.88,0.56 v 0.57 0.58 0.6 0.62 l 1.88,0.63 v 0.65 0.66 0.69 0.71 l 1.89,0.73 v 0.75 0.77 0.8 0.82 l 1.88,0.85 v 0.88 0.9 0.93 0.96 l 1.89,0.99 v 1.03 1.05 1.09 1.12 l 1.88,1.15 v 1.19 1.23 1.25 1.3 l 1.89,1.32 v 1.37 1.4 1.43 1.47 l 1.88,1.5 v 1.54 1.58 1.61 1.64 l 1.88,1.67 v 1.71 1.74 1.77 1.8 l 1.89,1.82 v 1.86 1.88 1.91 1.93 l 1.88,1.95 v 1.98 1.99 2.01 2.03 l 1.89,2.05 v 2.06 2.07 2.08 2.09 l 1.88,2.1 v 2.1 2.11 2.1 2.11 l 1.89,2.11 v 2.11 2.1 2.1 2.09 l 1.88,2.08 v 2.07 2.06 2.05 2.03 l 1.88,2.02 v 2.01 1.99 1.97 1.95 l 1.89,1.94 v 1.91 1.9 1.87 1.85 l 1.88,1.83 v 1.81 1.78 1.77 1.74 l 1.89,1.71 v 1.7 1.67 1.65 1.62 l 1.88,1.61 v 1.58 1.55 1.54 1.51 l 1.89,1.49 v 1.47 1.45 1.43 1.41 l 1.88,1.38 v 1.37 1.35 1.32 1.31 l 1.89,1.29 v 1.26 1.25 1.23 1.21 l 1.88,1.18 v 1.17 1.15 1.13 1.11 l 1.88,1.09 v 1.06 1.05 1.02 1 l 1.89,0.98 v 0.95 0.93 0.91 0.88 l 1.88,0.85 v 0.83 0.8 0.77 0.75 l 1.89,0.71 v 0.68 0.65 0.62 0.59 l 1.88,0.55 v 0.52 0.48 0.45 0.41 l 1.89,0.37 v 0.34 0.3 0.26 0.22 l 1.88,0.18 v 0.14 0.1 0.06 0.02 l 1.88,-0.02 v -0.06 -0.11 -0.15 -0.19 l 1.89,-0.23 v -0.27 -0.31 -0.36 -0.4 l 1.88,-0.43 v -0.48 -0.52 -0.56 -0.59 l 1.89,-0.64 v -0.67 -0.71 -0.75 -0.78 l 1.88,-0.82 v -0.85 -0.88 -0.92 -0.95 l 1.89,-0.98 v -1.01 -1.03 -1.07 -1.09 l 1.88,-1.12 v -1.14 -1.17 -1.19 -1.21 l 1.89,-1.24 v -1.25 -1.28 -1.29 -1.31 l 1.88,-1.33 v -1.34 -1.36 -1.38 -1.39 l 1.88,-1.41 v -1.41 -1.44 -1.44 -1.46 l 1.89,-1.47 v -1.48 -1.49 -1.51 -1.51 l 1.88,-1.53 v -1.54 -1.55 -1.57 -1.57 l 1.89,-1.59 v -1.59 -1.61 -1.63 -1.63 l 1.88,-1.65 v -1.66 -1.67 -1.68 -1.7 l 1.89,-1.72 v -1.72 -1.74 -1.76 -1.76 l 1.88,-1.79 v -1.79 -1.82 -1.82 -1.84 l 1.88,-1.86 v -1.87 -1.88 -0.86 -0.86 l 1.89,-0.87 v -0.87 -0.88 -0.88 -0.89 l 1.88,-0.9 v -0.9 -0.91 -0.92 -0.93 l 1.89,-0.94 v -0.95 -0.96 -0.97 -0.98 l 1.88,-0.99 v -1 -1.02 -1.03 -1.04 l 1.89,-1.06 v -1.06 -1.09 -1.09 -1.11 l 1.88,-1.13 v -1.14 -1.15 -1.17 -1.18 l 1.88,-1.19 v -1.21 -1.22 -1.24 -1.24 l 1.89,-1.26 v -1.27 -1.28 -1.29 -1.3 l 1.88,-1.31 v -1.32 -1.32 -1.33 -1.33 l 1.89,-1.33 v -1.34 -1.34 -1.34 -1.34 l 1.88,-1.33 v -1.34 -1.32 -1.32 -1.31 l 1.89,-1.3 v -1.29 -1.28 -1.27 -1.25 l 1.88,-1.23 v -1.22 -1.19 -1.18 -1.16 l 1.89,-1.13 v -1.11 -1.09 -1.06 -1.03 l 1.88,-1.01 v -0.99 -0.95 -0.93 -0.9 l 1.88,-0.88 v -0.84 -0.82 -0.8 -0.76 l 1.89,-0.74 v -0.72 -0.69 -0.67 -0.65 l 0.18,-0.05"
           id="path250"
           style="stroke-dasharray:5,5;stroke-dashoffset:0" />
      </g>
    </g>
    <g
       fill="none"
       color="#ffffff"
       stroke="#7d03a8"
       stroke-width="2"
       stroke-linecap="butt"
       stroke-linejoin="miter"
       id="g255" />
    <g
       fill="none"
       color="#000000"
       stroke="currentColor"
       stroke-width="2"
       stroke-linecap="butt"
       stroke-linejoin="miter"
       id="g257" />
    <g
       fill="none"
       color="#000000"
       stroke="#000000"
       stroke-width="3"
       stroke-linecap="butt"
       stroke-linejoin="miter"
       id="g259" />
    <g
       fill="none"
       color="#000000"
       stroke="currentColor"
       stroke-width="3"
       stroke-linecap="butt"
       stroke-linejoin="miter"
       id="g263">
      <path
         stroke="#000000"
         d="M 120,81.01 V 810 h 934.82 V 81.01 Z"
         id="path261" />
    </g>
    <g
       fill="none"
       color="#000000"
       stroke="currentColor"
       stroke-width="3"
       stroke-linecap="butt"
       stroke-linejoin="miter"
       id="g271">
      <g
         transform="translate(587.41,36.76)"
         stroke="none"
         fill="#000000"
         font-family="Arial"
         font-size="30px"
         text-anchor="middle"
         id="g269">
        <text
           id="text267"
           y="8"><tspan
             font-family="Arial"
             id="tspan265">Dipole before and after low-pass filtering</tspan></text>
      </g>
    </g>
    <g
       fill="none"
       color="#000000"
       stroke="currentColor"
       stroke-width="3"
       stroke-linecap="butt"
       stroke-linejoin="miter"
       id="g273" />
  </g>
  <metadata
     id="metadata1315">
    <rdf:RDF>
      <cc:Work
         rdf:about="">
        <dc:title>Gnuplot</dc:title>
      </cc:Work>
    </rdf:RDF>
  </metadata>
</svg>
